<?xml version="1.0" encoding="utf-8"?>
<!-- Generator: Adobe Illustrator 16.0.0, SVG Export Plug-In . SVG Version: 6.00 Build 0)  -->
<!DOCTYPE svg PUBLIC "-//W3C//DTD SVG 1.1//EN" "http://www.w3.org/Graphics/SVG/1.1/DTD/svg11.dtd">
<svg version="1.1" id="Livello_1" xmlns="http://www.w3.org/2000/svg" xmlns:xlink="http://www.w3.org/1999/xlink" x="0px" y="0px"
	 width="399.559px" height="68.114px" viewBox="0 0 399.559 68.114" enable-background="new 0 0 399.559 68.114"
	 xml:space="preserve">
<g>
	<g id="layer1_3_">
		<g id="g912_3_">
			<path id="path14_3_" fill="#FFFFFF" d="M28.943,46.124h-2.185V30.618H24l-8.52,13.583c-0.289,0.436-0.603,0.648-0.938,0.648
				s-0.647-0.215-0.937-0.648L4.895,30.618H2.182v15.505H0V29.539c0-0.734,0.376-1.105,1.128-1.105h4.416
				c0.384,0,0.688,0.168,0.912,0.505l8.088,12.625l7.944-12.602c0.207-0.352,0.512-0.527,0.912-0.527h4.438
				c0.736,0,1.104,0.369,1.104,1.105L28.943,46.124L28.943,46.124z"/>
			<path id="path16_3_" fill="#FFFFFF" d="M54.372,39.858c0,0.881-0.031,1.656-0.097,2.328c-0.064,0.672-0.207,1.248-0.433,1.73
				c-0.225,0.479-0.553,0.879-0.983,1.197c-0.433,0.32-1.009,0.576-1.729,0.77c-0.721,0.176-1.616,0.305-2.688,0.385
				s-2.353,0.119-3.84,0.119h-2.688c-1.504,0-2.792-0.039-3.863-0.119c-1.057-0.08-1.951-0.209-2.688-0.385
				c-0.722-0.191-1.297-0.447-1.729-0.77c-0.416-0.318-0.744-0.719-0.983-1.197c-0.224-0.48-0.367-1.059-0.433-1.73
				c-0.063-0.672-0.097-1.447-0.097-2.328v-5.135c0-0.881,0.032-1.656,0.097-2.328c0.063-0.673,0.209-1.248,0.433-1.729
				c0.239-0.479,0.567-0.881,0.983-1.199c0.433-0.319,1.008-0.567,1.729-0.744c0.735-0.192,1.632-0.327,2.688-0.407
				c1.071-0.08,2.359-0.121,3.863-0.121h2.688c1.487,0,2.769,0.041,3.84,0.121s1.969,0.215,2.688,0.407
				c0.72,0.177,1.296,0.425,1.729,0.744c0.433,0.318,0.761,0.719,0.983,1.199c0.226,0.479,0.367,1.057,0.433,1.729
				c0.064,0.672,0.097,1.446,0.097,2.328h-2.185c0-0.641-0.017-1.186-0.048-1.633c-0.032-0.465-0.129-0.854-0.289-1.178
				c-0.159-0.318-0.398-0.574-0.72-0.768c-0.305-0.207-0.734-0.359-1.297-0.455c-0.56-0.113-1.271-0.186-2.136-0.217
				c-0.849-0.047-1.881-0.072-3.097-0.072h-2.688c-1.216,0-2.256,0.025-3.12,0.072c-0.848,0.031-1.552,0.104-2.111,0.217
				c-0.561,0.096-1,0.248-1.319,0.455c-0.319,0.191-0.56,0.449-0.719,0.768c-0.16,0.32-0.257,0.713-0.289,1.178
				c-0.031,0.447-0.048,0.992-0.048,1.633v5.135c0,0.625,0.017,1.168,0.048,1.633c0.032,0.463,0.129,0.855,0.289,1.18
				c0.159,0.316,0.397,0.584,0.719,0.791c0.319,0.189,0.761,0.344,1.319,0.457c0.562,0.096,1.266,0.168,2.111,0.215
				c0.851,0.029,1.889,0.049,3.12,0.049h2.688c1.841,0,3.265-0.049,4.271-0.146c1.024-0.096,1.776-0.295,2.257-0.6
				c0.495-0.303,0.792-0.736,0.889-1.295c0.111-0.576,0.169-1.336,0.169-2.281v-1.055h-8.474v-2.188h9.553
				c0.416,0,0.703,0.072,0.863,0.221c0.159,0.143,0.239,0.424,0.239,0.84v2.182h0.003V39.858z"/>
			<path id="path20_3_" fill="#FFFFFF" d="M98.119,46.124H82.783c-0.722,0-1.08-0.375-1.08-1.129V28.434h2.184v15.504h14.232V46.124
				z"/>
			<path id="path22_3_" fill="#FFFFFF" d="M123.182,45.596l-1.92,1.033l-9.049-16.011h-2.256l-9.048,16.011l-1.921-1.033
				l9.385-16.584c0.208-0.385,0.527-0.576,0.96-0.576h3.552c0.4,0,0.713,0.191,0.938,0.576L123.182,45.596z"/>
			<path id="path24_3_" fill="#FFFFFF" d="M125.25,29.539c0-0.734,0.368-1.105,1.104-1.105h12.864c1.313,0,2.4,0.089,3.266,0.265
				c0.862,0.179,1.545,0.479,2.039,0.912c0.495,0.416,0.842,0.969,1.032,1.655c0.207,0.689,0.313,1.546,0.313,2.568
				c0,0.735-0.129,1.327-0.385,1.776c-0.239,0.447-0.575,0.816-1.009,1.104c0.306,0.129,0.584,0.297,0.841,0.504
				c0.256,0.191,0.473,0.447,0.646,0.768c0.175,0.322,0.313,0.73,0.408,1.227c0.112,0.479,0.168,1.07,0.168,1.773
				c0,0.961-0.097,1.771-0.288,2.424c-0.176,0.645-0.52,1.168-1.032,1.584c-0.495,0.4-1.2,0.689-2.109,0.865
				c-0.896,0.176-2.064,0.266-3.507,0.266h-13.248c-0.733,0-1.104-0.379-1.104-1.131V29.539z M144.354,40.965
				c0-0.563-0.021-1.008-0.069-1.348c-0.049-0.352-0.137-0.631-0.267-0.84c-0.127-0.207-0.317-0.367-0.573-0.479
				c-0.24-0.111-0.563-0.217-0.961-0.313c-0.354-0.08-0.602-0.191-0.744-0.336c-0.146-0.16-0.217-0.377-0.217-0.646
				c0-0.273,0.063-0.475,0.191-0.602c0.128-0.145,0.304-0.264,0.528-0.359c0.304-0.129,0.544-0.258,0.72-0.385
				c0.192-0.145,0.336-0.297,0.433-0.457c0.111-0.176,0.186-0.375,0.218-0.6c0.048-0.223,0.069-0.489,0.069-0.792
				c0-0.689-0.063-1.24-0.189-1.656c-0.112-0.416-0.328-0.736-0.647-0.961c-0.319-0.24-0.774-0.391-1.369-0.455
				c-0.575-0.08-1.327-0.121-2.256-0.121h-11.76v13.299h12.146c1.022,0,1.849-0.051,2.473-0.146
				c0.624-0.111,1.104-0.279,1.438-0.504c0.336-0.24,0.562-0.543,0.673-0.912C144.298,41.973,144.354,41.51,144.354,40.965
				L144.354,40.965z"/>
			<path id="path26_3_" fill="#FFFFFF" d="M164.939,36.235c0.928,0,1.702,0.105,2.327,0.314c0.641,0.189,1.15,0.473,1.535,0.84
				c0.386,0.352,0.655,0.773,0.815,1.27c0.176,0.496,0.264,1.031,0.264,1.607v1.08c0,0.992-0.109,1.814-0.336,2.473
				c-0.208,0.643-0.624,1.152-1.248,1.535c-0.605,0.385-1.472,0.648-2.592,0.793c-1.104,0.16-2.561,0.24-4.368,0.24h-3.646
				c-1.776,0-3.218-0.08-4.32-0.24c-1.104-0.145-1.969-0.416-2.592-0.814c-0.625-0.398-1.049-0.943-1.272-1.635
				c-0.224-0.688-0.336-1.564-0.336-2.639v-0.6h2.186v0.551c0,0.688,0.071,1.24,0.217,1.656c0.16,0.416,0.464,0.734,0.912,0.961
				c0.446,0.223,1.08,0.375,1.896,0.455c0.832,0.063,1.912,0.096,3.24,0.096h3.672c1.376,0,2.479-0.031,3.313-0.096
				c0.849-0.064,1.496-0.191,1.942-0.385c0.466-0.209,0.77-0.486,0.912-0.84c0.16-0.369,0.24-0.848,0.24-1.439v-0.959
				c0-0.4-0.057-0.73-0.168-0.984c-0.098-0.256-0.296-0.457-0.602-0.6c-0.287-0.16-0.694-0.273-1.225-0.338
				c-0.527-0.063-1.208-0.096-2.04-0.096c-1.2,0-2.416,0.023-3.647,0.072c-1.215,0.031-2.424,0.047-3.623,0.047
				c-1.058,0-2.023-0.047-2.903-0.145c-0.864-0.098-1.608-0.307-2.232-0.623c-0.606-0.336-1.088-0.803-1.438-1.395
				c-0.336-0.605-0.504-1.416-0.504-2.424v-1.008c0-0.942,0.11-1.719,0.336-2.326c0.225-0.625,0.641-1.112,1.248-1.465
				c0.625-0.367,1.479-0.625,2.567-0.77c1.103-0.143,2.526-0.215,4.271-0.215h3.457c1.68,0,3.071,0.064,4.176,0.191
				c1.12,0.129,2.008,0.358,2.664,0.697c0.655,0.317,1.119,0.768,1.392,1.344c0.273,0.576,0.408,1.313,0.408,2.207v0.504h-2.186
				v-0.312c0-0.512-0.104-0.92-0.313-1.226c-0.208-0.319-0.561-0.567-1.057-0.743c-0.479-0.177-1.136-0.296-1.968-0.359
				c-0.815-0.063-1.84-0.096-3.071-0.096h-3.624c-1.28,0-2.32,0.03-3.12,0.096c-0.801,0.063-1.424,0.191-1.872,0.386
				c-0.446,0.176-0.752,0.432-0.912,0.768c-0.144,0.336-0.216,0.775-0.216,1.32v0.981c0,0.449,0.057,0.832,0.168,1.152
				c0.128,0.305,0.368,0.553,0.721,0.744c0.367,0.191,0.863,0.328,1.487,0.408c0.642,0.08,1.479,0.119,2.521,0.119
				c1.425,0,2.85-0.023,4.271-0.07C162.091,36.26,163.516,36.235,164.939,36.235L164.939,36.235z"/>
			<path id="path18_3_" fill="#FFFFFF" d="M79.634,45.596l-1.92,1.033l-9.048-16.011H66.41l-9.049,16.011l-1.92-1.031l9.385-16.584
				c0.208-0.385,0.526-0.576,0.96-0.576h3.552c0.4,0,0.712,0.191,0.938,0.576L79.634,45.596z"/>
			<rect id="rect863_3_" x="66.609" y="34.127" fill="#FFFFFF" width="1.92" height="1.749"/>
			<rect id="rect863-1_3_" x="110.081" y="34.151" fill="#FFFFFF" width="1.919" height="1.748"/>
		</g>
	</g>
	<g>
		<path fill="#FFFFFF" d="M367.127,25.911c1.64-0.264,3.186-0.721,4.791-0.146C370.195,26.84,368.623,26.957,367.127,25.911
			 M386.78,33.961c0.013-0.129,0.045-0.254,0.064-0.384v-0.694c-0.064-1.404-0.556-2.711-0.942-4.039
			c-0.07-0.242-0.296-0.545-0.515-0.619c-0.702-0.232-1.823,0.6-1.813,1.338c0.008,0.348,0.13,0.713,0.276,1.037
			c0.843,1.859,0.916,3.746,0.234,5.663c-1.383,3.885-4.04,6.619-7.749,8.303c-4.024,1.826-8.117,1.889-12.13-0.045
			c-3.225-1.553-5.203-5.371-4.768-8.891c0.238-1.948,1.118-3.606,2.294-5.125c0.822-1.064,1.676-2.113,2.814-2.873
			c0.892-0.595,1.824-0.679,2.795-0.187c0.127,0.063,0.267,0.129,0.405,0.142c1.093,0.092,2.188,0.237,3.279,0.235
			c1.181-0.002,2.255-0.479,3.279-1.03c0.347-0.185,0.527-0.488,0.487-0.896c-0.035-0.389-0.293-0.59-0.624-0.699
			c-0.88-0.285-1.753-0.598-2.648-0.82c-1.646-0.408-3.306-0.252-4.965-0.055c-1.641,0.197-3.014-0.219-3.875-1.766
			c-0.658-1.185-1.159-2.414-1.359-3.771c-0.629-4.248,2.828-7.621,7.062-6.901c1.893,0.321,3.457,1.271,4.938,2.405
			c0.46,0.354,0.753,0.386,1.056,0.044c0.358-0.402,0.323-0.791-0.107-1.166c-0.284-0.248-0.58-0.48-0.858-0.732
			c-1.027-0.932-2.153-1.738-3.457-2.205c-1.15-0.414-2.356-0.668-3.539-0.99h-1.739c-0.449,0.105-0.906,0.182-1.348,0.318
			c-2.591,0.803-4.379,3.057-4.563,5.76c-0.235,3.479,1.029,6.395,3.379,8.898c0.236,0.252,0.483,0.5,0.688,0.776
			c0.285,0.392,0.253,0.666-0.103,0.996c-0.222,0.205-0.479,0.375-0.729,0.543c-2.624,1.769-4.739,3.983-6.056,6.896
			c-1.234,2.733-1.563,5.53-0.399,8.377c1.063,2.596,3.039,4.287,5.544,5.416c1.528,0.689,3.141,1.082,4.812,1.236
			c0.142,0.016,0.283,0.051,0.425,0.074h2.868c1.056-0.174,2.126-0.283,3.161-0.533c4.713-1.141,8.734-3.418,11.7-7.336
			C385.56,38.682,386.564,36.475,386.78,33.961 M397.023,28.797c0,14.481-11.781,26.262-26.262,26.262
			c-14.479,0-26.262-11.779-26.262-26.262c0-14.479,11.781-26.262,26.262-26.262S397.023,14.317,397.023,28.797 M399.559,28.797
			C399.559,12.92,386.642,0,370.763,0s-28.798,12.92-28.798,28.797c0,15.881,12.919,28.797,28.798,28.797
			S399.559,44.678,399.559,28.797"/>
		<path fill="#FFFFFF" d="M265.611,31.495l0.487-3.125c-0.977-0.307-1.991-0.543-3.042-0.706c-1.05-0.162-2.336-0.244-3.855-0.244
			c-2.5,0-4.466,0.784-5.896,2.35c-1.432,1.568-2.392,3.918-2.882,7.051c-0.307,1.957-0.461,3.533-0.461,4.727
			c0,2.211,0.402,3.818,1.209,4.822c0.808,1.008,2.144,1.508,4.007,1.508c0.763,0,1.698-0.166,2.813-0.5
			c1.112-0.338,1.96-0.678,2.538-1.021l0.327,1.359h3.043l1.792-11.438c-0.833-0.037-1.819-0.055-2.961-0.055
			c-1.195,0-2.219,0.037-3.068,0.109c-0.854,0.07-1.342,0.115-1.468,0.135l-0.517,3.178h3.612l-0.626,3.941
			c-0.452,0.125-1.09,0.252-1.914,0.381c-0.824,0.125-1.545,0.188-2.159,0.188c-0.888,0-1.536-0.244-1.941-0.732
			c-0.408-0.49-0.611-1.225-0.611-2.201c0-0.867,0.109-2.037,0.325-3.504c0.271-1.701,0.599-3.023,0.979-3.967
			c0.38-0.941,0.905-1.63,1.575-2.064c0.67-0.436,1.584-0.65,2.745-0.65C261.979,31.034,263.964,31.187,265.611,31.495 M278,37.145
			l0.624-4.02c-0.363-0.107-0.852-0.162-1.466-0.162c-0.779,0-1.491,0.182-2.135,0.543c-0.643,0.362-1.263,0.86-1.859,1.495
			l-0.163-1.875h-3.586l-2.312,14.59h4.051l1.494-9.455c0.45-0.344,0.989-0.625,1.614-0.84c0.625-0.221,1.31-0.326,2.053-0.326
			C276.749,37.094,277.311,37.108,278,37.145 M291.881,47.715l2.283-14.59h-4.021l-1.574,9.942c-0.543,0.398-1.073,0.697-1.59,0.898
			c-0.518,0.197-1.082,0.297-1.698,0.297c-1.142,0-1.71-0.488-1.71-1.467c0-0.145,0.017-0.344,0.054-0.598l1.412-9.075h-4.021
			l-1.521,9.563c-0.092,0.58-0.136,1.168-0.136,1.766c0,1.09,0.294,1.932,0.883,2.527c0.587,0.598,1.498,0.896,2.729,0.896
			c1.067,0,1.975-0.131,2.715-0.395c0.744-0.26,1.541-0.682,2.393-1.264l0.219,1.496h3.584V47.715z M305.438,38.856
			c0,0.199-0.046,0.689-0.136,1.467c-0.254,1.469-0.643,2.523-1.167,3.166c-0.526,0.645-1.278,0.963-2.256,0.963
			c-0.472,0-0.87-0.023-1.196-0.078c-0.324-0.057-0.68-0.154-1.059-0.303l1.249-7.85l2.608-0.027c0.688,0,1.186,0.217,1.494,0.652
			C305.283,37.28,305.438,37.95,305.438,38.856 M309.133,41.086c0.182-1.123,0.271-2.094,0.271-2.908
			c0-1.773-0.375-3.086-1.127-3.939c-0.753-0.853-1.979-1.276-3.682-1.276c-1.25,0-2.44,0.063-3.572,0.188
			c-1.134,0.129-2.387,0.31-3.763,0.543l-3.232,20.458h4.02l1.089-6.846c0.741,0.379,1.812,0.568,3.205,0.568
			c1.812,0,3.305-0.566,4.482-1.699C307.999,45.047,308.77,43.35,309.133,41.086 M321.248,38.856c0,0.199-0.045,0.689-0.136,1.467
			c-0.255,1.469-0.644,2.523-1.168,3.166c-0.526,0.645-1.276,0.963-2.257,0.963c-0.472,0-0.866-0.023-1.193-0.078
			c-0.326-0.057-0.68-0.154-1.061-0.303l1.25-7.85l2.607-0.027c0.689,0,1.188,0.217,1.495,0.652
			C321.094,37.28,321.248,37.95,321.248,38.856 M324.942,41.086c0.181-1.123,0.271-2.094,0.271-2.908
			c0-1.773-0.375-3.086-1.128-3.939c-0.752-0.853-1.978-1.276-3.682-1.276c-1.249,0-2.44,0.063-3.571,0.188
			c-1.132,0.129-2.387,0.31-3.763,0.543l-3.233,20.458h4.021l1.086-6.846c0.741,0.379,1.812,0.568,3.206,0.568
			c1.812,0,3.305-0.566,4.481-1.699C323.811,45.047,324.582,43.35,324.942,41.086 M337.032,38.098c0,0.453-0.082,1.295-0.245,2.525
			c-0.182,1.121-0.398,1.965-0.652,2.523c-0.253,0.564-0.589,0.951-1.004,1.17c-0.417,0.219-0.987,0.326-1.712,0.326
			c-0.742,0-1.291-0.145-1.644-0.436c-0.354-0.289-0.53-0.824-0.53-1.602c0-0.543,0.055-1.205,0.163-1.984
			c0.181-1.25,0.397-2.189,0.651-2.824c0.255-0.635,0.589-1.074,1.007-1.318c0.416-0.244,0.994-0.365,1.737-0.365
			c0.814,0,1.39,0.148,1.726,0.447C336.864,36.86,337.032,37.374,337.032,38.098 M341.054,38.286c0-1.268-0.163-2.279-0.488-3.043
			c-0.326-0.759-0.902-1.329-1.727-1.71c-0.824-0.381-1.996-0.569-3.519-0.569c-1.667,0-3.006,0.188-4.021,0.569
			c-1.015,0.382-1.83,1.078-2.443,2.093c-0.617,1.014-1.078,2.479-1.389,4.398c-0.144,0.924-0.216,1.852-0.216,2.771
			c0,3.389,1.91,5.08,5.731,5.08c1.648,0,2.983-0.189,4.009-0.568c1.021-0.383,1.847-1.053,2.471-2.014
			c0.625-0.959,1.073-2.318,1.345-4.074C340.971,40.151,341.054,39.176,341.054,38.286"/>
		<path fill="#FFFFFF" d="M331.234,66.7c0,1.271,0.979,1.41,1.594,1.387c0,0,2.405-0.092,2.939-0.162v-1.08h-2.629
			c-0.273,0-0.581,0.01-0.585-0.49v-1.078l2.786-0.088v-1.086l-2.786-0.098v-1.076c0-0.256,0-0.527,0.49-0.527h2.724v-1.092
			c-0.606-0.084-3.033-0.15-3.033-0.15c-0.652-0.014-1.5,0.236-1.5,1.432V66.7L331.234,66.7z M319.494,64.588
			c0,2.188,0.603,3.508,2.347,3.523c0.987,0.016,1.785-0.068,2.403-0.26v-1.033c0,0-1.098,0.076-2.086,0.076
			c-1.09,0-1.345-0.744-1.345-2.291c0-2.086,0.372-2.307,1.338-2.307c0.924,0,2.083,0.129,2.093,0.129v-1.033
			c-0.743-0.219-1.436-0.313-2.403-0.313C319.966,61.083,319.494,62.383,319.494,64.588 M307.079,68.057h1.327v-4.406l2.746,4.406
			h1.319v-6.898h-1.319v4.455l-2.737-4.455h-1.336V68.057z M296.355,65.358l0.827-2.463l0.777,2.463H296.355z M294.098,68.057h1.417
			l0.498-1.527h2.262l0.488,1.527h1.403l-2.24-6.898h-1.5L294.098,68.057z M285.835,68.057h1.319v-6.898h-1.319V68.057z
			 M274.55,66.711c0,1.064,0.686,1.346,1.438,1.346h2.831v-1.215h-2.364c-0.274,0-0.585,0.008-0.585-0.49v-5.193h-1.319
			L274.55,66.711L274.55,66.711z M263.263,66.711c0,1.064,0.686,1.346,1.438,1.346h2.832v-1.215h-2.365
			c-0.273,0-0.585,0.008-0.585-0.49v-5.193h-1.319L263.263,66.711L263.263,66.711z M252.542,65.358l0.828-2.463l0.774,2.463H252.542
			z M250.284,68.057h1.416l0.499-1.527h2.259l0.491,1.527h1.402l-2.239-6.898h-1.501L250.284,68.057z"/>
	</g>
	<line fill="none" stroke="#FFFFFF" stroke-miterlimit="10" x1="212.941" y1="0" x2="212.941" y2="68.114"/>
</g>
</svg>
