<?xml version="1.0" encoding="utf-8"?>
<!-- Generator: Adobe Illustrator 16.0.0, SVG Export Plug-In . SVG Version: 6.00 Build 0)  -->
<!DOCTYPE svg PUBLIC "-//W3C//DTD SVG 1.1//EN" "http://www.w3.org/Graphics/SVG/1.1/DTD/svg11.dtd">
<svg version="1.1" id="Livello_1" xmlns="http://www.w3.org/2000/svg" xmlns:xlink="http://www.w3.org/1999/xlink" x="0px" y="0px"
	 width="399.559px" height="68.114px" viewBox="275 149.304 399.559 68.114" enable-background="new 275 149.304 399.559 68.114"
	 xml:space="preserve">
<g id="layer1">
	<g id="g912">
		<path id="path14" fill="#FF6600" d="M28.943,17.927H26.76V2.424H24l-8.52,13.584c-0.289,0.434-0.602,0.648-0.938,0.648
			s-0.648-0.215-0.936-0.648L4.896,2.424H2.184v15.504H0V1.344C0,0.608,0.376,0.24,1.128,0.24h4.416
			c0.384,0,0.688,0.168,0.912,0.504l8.088,12.625l7.944-12.602C22.695,0.416,23,0.24,23.4,0.24h4.438
			c0.736,0,1.104,0.368,1.104,1.104V17.927L28.943,17.927z"/>
		<path id="path16" fill="#FF6600" d="M54.372,11.664c0,0.881-0.031,1.656-0.097,2.328c-0.064,0.672-0.207,1.248-0.432,1.73
			c-0.225,0.479-0.553,0.879-0.984,1.197c-0.432,0.32-1.008,0.576-1.728,0.77c-0.721,0.176-1.616,0.305-2.688,0.385
			c-1.071,0.08-2.352,0.119-3.84,0.119h-2.688c-1.504,0-2.792-0.039-3.863-0.119c-1.057-0.08-1.951-0.209-2.688-0.385
			c-0.721-0.191-1.297-0.447-1.729-0.77c-0.416-0.318-0.744-0.719-0.984-1.197c-0.223-0.48-0.367-1.059-0.432-1.73
			c-0.063-0.672-0.097-1.447-0.097-2.328V6.529c0-0.881,0.032-1.656,0.097-2.328c0.063-0.673,0.209-1.249,0.432-1.729
			c0.24-0.479,0.568-0.881,0.984-1.199c0.432-0.32,1.008-0.568,1.729-0.744c0.736-0.192,1.632-0.328,2.688-0.408
			C39.124,0.04,40.412,0,41.916,0h2.688c1.488,0,2.769,0.04,3.84,0.12c1.072,0.08,1.969,0.216,2.688,0.408
			c0.72,0.176,1.296,0.424,1.728,0.744c0.433,0.318,0.761,0.72,0.984,1.199c0.225,0.479,0.367,1.057,0.432,1.729
			c0.065,0.672,0.097,1.447,0.097,2.328h-2.185c0-0.641-0.016-1.186-0.047-1.633c-0.033-0.465-0.129-0.855-0.289-1.178
			c-0.16-0.318-0.399-0.575-0.72-0.768c-0.305-0.208-0.735-0.36-1.297-0.456c-0.56-0.112-1.271-0.185-2.136-0.216
			c-0.848-0.048-1.881-0.072-3.096-0.072h-2.688c-1.216,0-2.256,0.024-3.12,0.072c-0.848,0.031-1.552,0.104-2.111,0.216
			c-0.561,0.096-1,0.248-1.32,0.456c-0.319,0.191-0.559,0.448-0.719,0.768c-0.16,0.32-0.256,0.713-0.289,1.178
			c-0.031,0.447-0.047,0.992-0.047,1.633v5.135c0,0.625,0.016,1.168,0.047,1.633c0.033,0.463,0.129,0.855,0.289,1.178
			c0.16,0.318,0.398,0.584,0.719,0.791c0.32,0.191,0.761,0.344,1.32,0.457c0.561,0.096,1.265,0.168,2.111,0.215
			c0.85,0.031,1.889,0.049,3.12,0.049h2.688c1.84,0,3.264-0.049,4.271-0.146c1.024-0.096,1.776-0.295,2.257-0.6
			c0.495-0.303,0.792-0.736,0.889-1.295c0.111-0.576,0.168-1.336,0.168-2.281v-1.055h-8.473V8.424h9.553
			c0.416,0,0.703,0.072,0.863,0.219c0.159,0.143,0.239,0.424,0.239,0.84v2.182H54.372z"/>
		<path id="path20" fill="#FF6600" d="M98.119,17.927H82.783c-0.721,0-1.08-0.375-1.08-1.127V0.24h2.184v15.504h14.232V17.927z"/>
		<path id="path22" fill="#FF6600" d="M109.934,9.457 M123.182,17.4l-1.92,1.033l-9.049-16.011h-2.256l-9.048,16.011L98.988,17.4
			l9.385-16.584c0.208-0.385,0.527-0.576,0.96-0.576h3.552c0.4,0,0.713,0.191,0.938,0.576L123.182,17.4z"/>
		<path id="path24" fill="#FF6600" d="M125.25,1.344c0-0.734,0.368-1.104,1.104-1.104h12.864c1.313,0,2.4,0.088,3.265,0.264
			c0.863,0.177,1.545,0.479,2.039,0.912c0.496,0.416,0.842,0.968,1.033,1.656c0.207,0.688,0.313,1.545,0.313,2.568
			c0,0.734-0.129,1.326-0.385,1.775c-0.239,0.447-0.575,0.816-1.008,1.104c0.305,0.129,0.584,0.297,0.84,0.504
			c0.256,0.191,0.473,0.447,0.647,0.768c0.175,0.322,0.313,0.73,0.408,1.225c0.112,0.48,0.168,1.072,0.168,1.775
			c0,0.961-0.097,1.77-0.288,2.424c-0.176,0.643-0.52,1.168-1.032,1.584c-0.495,0.4-1.2,0.689-2.11,0.865
			c-0.896,0.176-2.064,0.264-3.506,0.264h-13.248c-0.734,0-1.104-0.377-1.104-1.129V1.344z M144.354,12.769
			c0-0.561-0.022-1.008-0.07-1.346c-0.049-0.352-0.137-0.631-0.266-0.84c-0.127-0.207-0.318-0.367-0.574-0.479
			c-0.24-0.111-0.562-0.217-0.961-0.313c-0.353-0.08-0.601-0.191-0.744-0.336c-0.145-0.16-0.217-0.377-0.217-0.646
			c0-0.273,0.064-0.475,0.192-0.602c0.128-0.145,0.304-0.264,0.528-0.359c0.304-0.129,0.544-0.258,0.72-0.385
			c0.192-0.145,0.336-0.297,0.433-0.457c0.111-0.176,0.185-0.375,0.217-0.6c0.048-0.223,0.07-0.488,0.07-0.791
			c0-0.689-0.063-1.24-0.19-1.656c-0.112-0.417-0.328-0.736-0.647-0.961c-0.32-0.24-0.775-0.392-1.369-0.456
			c-0.576-0.08-1.328-0.12-2.256-0.12h-11.76v13.299h12.145c1.023,0,1.849-0.051,2.473-0.146c0.624-0.111,1.104-0.279,1.439-0.504
			c0.336-0.24,0.561-0.543,0.672-0.912C144.298,13.777,144.354,13.314,144.354,12.769L144.354,12.769z"/>
		<path id="path26" fill="#FF6600" d="M164.939,8.041c0.928,0,1.703,0.104,2.328,0.313c0.64,0.191,1.15,0.473,1.535,0.84
			c0.385,0.352,0.655,0.775,0.815,1.271c0.176,0.496,0.264,1.031,0.264,1.607v1.08c0,0.992-0.11,1.814-0.336,2.473
			c-0.208,0.641-0.624,1.152-1.248,1.535c-0.606,0.385-1.472,0.648-2.592,0.793c-1.104,0.16-2.56,0.24-4.368,0.24h-3.646
			c-1.776,0-3.217-0.08-4.32-0.24c-1.104-0.145-1.969-0.416-2.592-0.816c-0.625-0.398-1.049-0.943-1.272-1.633
			c-0.224-0.688-0.336-1.566-0.336-2.639v-0.6h2.185v0.551c0,0.688,0.072,1.24,0.217,1.656c0.16,0.416,0.464,0.734,0.912,0.961
			c0.447,0.223,1.08,0.375,1.896,0.455c0.832,0.063,1.912,0.096,3.24,0.096h3.672c1.376,0,2.479-0.031,3.313-0.096
			c0.848-0.064,1.496-0.191,1.942-0.385c0.466-0.209,0.769-0.486,0.912-0.84c0.16-0.369,0.24-0.848,0.24-1.439v-0.959
			c0-0.4-0.056-0.73-0.168-0.984c-0.097-0.256-0.296-0.457-0.601-0.6c-0.287-0.16-0.695-0.273-1.225-0.338
			c-0.527-0.063-1.208-0.096-2.04-0.096c-1.2,0-2.416,0.023-3.647,0.072c-1.215,0.031-2.424,0.047-3.623,0.047
			c-1.058,0-2.024-0.047-2.904-0.145c-0.864-0.096-1.608-0.305-2.232-0.623c-0.607-0.336-1.088-0.801-1.439-1.393
			c-0.336-0.607-0.504-1.416-0.504-2.424V4.775c0-0.943,0.111-1.72,0.336-2.327c0.225-0.624,0.641-1.112,1.248-1.465
			c0.625-0.367,1.479-0.624,2.568-0.769C154.57,0.072,155.995,0,157.738,0h3.457c1.68,0,3.072,0.063,4.176,0.191
			c1.12,0.128,2.008,0.359,2.664,0.696c0.656,0.319,1.119,0.768,1.392,1.344s0.408,1.313,0.408,2.208v0.504h-2.185V4.633
			c0-0.512-0.104-0.921-0.313-1.225c-0.208-0.32-0.561-0.568-1.057-0.744c-0.479-0.177-1.135-0.296-1.967-0.359
			c-0.816-0.064-1.84-0.097-3.072-0.097h-3.624c-1.28,0-2.32,0.031-3.12,0.097c-0.801,0.064-1.424,0.191-1.872,0.384
			c-0.446,0.176-0.752,0.433-0.912,0.769c-0.144,0.336-0.216,0.775-0.216,1.32V5.76c0,0.449,0.057,0.832,0.168,1.152
			c0.128,0.305,0.368,0.553,0.721,0.744c0.367,0.191,0.863,0.328,1.487,0.408c0.642,0.08,1.479,0.119,2.521,0.119
			c1.424,0,2.849-0.023,4.271-0.07C162.091,8.064,163.516,8.041,164.939,8.041L164.939,8.041z"/>
		<path id="path18" fill="#FF6600" d="M66.387,9.457 M79.634,17.4l-1.92,1.033l-9.048-16.01H66.41l-9.049,16.01l-1.92-1.031
			l9.385-16.585c0.208-0.385,0.527-0.576,0.96-0.576h3.552c0.4,0,0.712,0.191,0.938,0.576L79.634,17.4z"/>
		<rect id="rect863" x="66.609" y="5.931" fill="#FF6600" width="1.92" height="1.748"/>
		<rect id="rect863-1" x="110.081" y="5.957" fill="#FF6600" width="1.919" height="1.748"/>
	</g>
</g>
<g id="layer1_4_">
	<g id="g912_4_">
		<path id="path14_4_" fill="#FFFFFF" d="M28.943,79.953H26.76V64.449H24l-8.52,13.584c-0.289,0.434-0.602,0.648-0.938,0.648
			s-0.648-0.215-0.936-0.648L4.896,64.449H2.184v15.504H0V63.369c0-0.735,0.376-1.104,1.128-1.104h4.416
			c0.384,0,0.688,0.168,0.912,0.504l8.088,12.625l7.944-12.602c0.207-0.352,0.512-0.527,0.912-0.527h4.438
			c0.736,0,1.104,0.368,1.104,1.104V79.953L28.943,79.953z"/>
		<path id="path16_4_" fill="#FFFFFF" d="M54.372,73.689c0,0.881-0.031,1.656-0.097,2.328c-0.064,0.672-0.207,1.248-0.432,1.73
			c-0.225,0.479-0.553,0.879-0.984,1.197c-0.432,0.32-1.008,0.576-1.728,0.77c-0.721,0.176-1.616,0.305-2.688,0.385
			c-1.071,0.08-2.352,0.119-3.84,0.119h-2.688c-1.504,0-2.792-0.039-3.863-0.119c-1.057-0.08-1.951-0.209-2.688-0.385
			c-0.721-0.191-1.297-0.447-1.729-0.77c-0.416-0.318-0.744-0.719-0.984-1.197c-0.223-0.48-0.367-1.059-0.432-1.73
			c-0.063-0.672-0.097-1.447-0.097-2.328v-5.135c0-0.881,0.032-1.656,0.097-2.328c0.063-0.673,0.209-1.249,0.432-1.729
			c0.24-0.479,0.568-0.881,0.984-1.199c0.432-0.32,1.008-0.568,1.729-0.744c0.736-0.192,1.632-0.328,2.688-0.408
			c1.071-0.08,2.359-0.12,3.863-0.12h2.688c1.488,0,2.769,0.04,3.84,0.12c1.072,0.08,1.969,0.216,2.688,0.408
			c0.72,0.176,1.296,0.424,1.728,0.744c0.433,0.318,0.761,0.72,0.984,1.199c0.225,0.479,0.367,1.057,0.432,1.729
			c0.065,0.672,0.097,1.447,0.097,2.328h-2.185c0-0.641-0.016-1.186-0.047-1.633c-0.033-0.465-0.129-0.855-0.289-1.178
			c-0.16-0.318-0.399-0.575-0.72-0.768c-0.305-0.208-0.735-0.36-1.297-0.456c-0.56-0.112-1.271-0.185-2.136-0.216
			c-0.848-0.048-1.881-0.072-3.096-0.072h-2.688c-1.216,0-2.256,0.024-3.12,0.072c-0.848,0.031-1.552,0.104-2.111,0.216
			c-0.561,0.096-1,0.248-1.32,0.456c-0.319,0.191-0.559,0.448-0.719,0.768c-0.16,0.32-0.256,0.713-0.289,1.178
			c-0.031,0.447-0.047,0.992-0.047,1.633v5.135c0,0.625,0.016,1.168,0.047,1.633c0.033,0.463,0.129,0.855,0.289,1.178
			c0.16,0.318,0.398,0.584,0.719,0.791c0.32,0.191,0.761,0.344,1.32,0.457c0.561,0.096,1.265,0.168,2.111,0.215
			c0.85,0.031,1.889,0.049,3.12,0.049h2.688c1.84,0,3.264-0.049,4.271-0.146c1.024-0.096,1.776-0.295,2.257-0.6
			c0.495-0.303,0.792-0.736,0.889-1.295c0.111-0.576,0.168-1.336,0.168-2.281v-1.055h-8.473v-2.186h9.553
			c0.416,0,0.703,0.072,0.863,0.219c0.159,0.143,0.239,0.424,0.239,0.84v2.182H54.372z"/>
		<path id="path20_4_" fill="#FFFFFF" d="M98.119,79.953H82.783c-0.721,0-1.08-0.375-1.08-1.127V62.265h2.184v15.504h14.232V79.953z
			"/>
		<path id="path22_4_" fill="#FFFFFF" d="M109.934,71.482 M123.182,79.426l-1.92,1.033l-9.049-16.011h-2.256l-9.048,16.011
			l-1.921-1.033l9.385-16.584c0.208-0.385,0.527-0.576,0.96-0.576h3.552c0.4,0,0.713,0.191,0.938,0.576L123.182,79.426z"/>
		<path id="path24_4_" fill="#FFFFFF" d="M125.25,63.369c0-0.734,0.368-1.104,1.104-1.104h12.864c1.313,0,2.4,0.088,3.265,0.264
			c0.863,0.177,1.545,0.479,2.039,0.912c0.496,0.416,0.842,0.968,1.033,1.656c0.207,0.688,0.313,1.545,0.313,2.568
			c0,0.734-0.129,1.326-0.385,1.775c-0.239,0.447-0.575,0.816-1.008,1.104c0.305,0.129,0.584,0.297,0.84,0.504
			c0.256,0.191,0.473,0.447,0.647,0.768c0.175,0.322,0.313,0.73,0.408,1.225c0.112,0.48,0.168,1.072,0.168,1.775
			c0,0.961-0.097,1.77-0.288,2.424c-0.176,0.643-0.52,1.168-1.032,1.584c-0.495,0.4-1.2,0.689-2.11,0.865
			c-0.896,0.176-2.064,0.264-3.506,0.264h-13.248c-0.734,0-1.104-0.377-1.104-1.129V63.369z M144.354,74.795
			c0-0.561-0.022-1.008-0.07-1.346c-0.049-0.352-0.137-0.631-0.266-0.84c-0.127-0.207-0.318-0.367-0.574-0.479
			c-0.24-0.111-0.562-0.217-0.961-0.313c-0.353-0.08-0.601-0.191-0.744-0.336c-0.145-0.16-0.217-0.377-0.217-0.646
			c0-0.273,0.064-0.475,0.192-0.602c0.128-0.145,0.304-0.264,0.528-0.359c0.304-0.129,0.544-0.258,0.72-0.385
			c0.192-0.145,0.336-0.297,0.433-0.457c0.111-0.176,0.185-0.375,0.217-0.6c0.048-0.223,0.07-0.488,0.07-0.791
			c0-0.689-0.063-1.24-0.19-1.656c-0.112-0.417-0.328-0.736-0.647-0.961c-0.32-0.24-0.775-0.392-1.369-0.456
			c-0.576-0.08-1.328-0.12-2.256-0.12h-11.76v13.299h12.145c1.023,0,1.849-0.051,2.473-0.146c0.624-0.111,1.104-0.279,1.439-0.504
			c0.336-0.24,0.561-0.543,0.672-0.912C144.298,75.802,144.354,75.34,144.354,74.795L144.354,74.795z"/>
		<path id="path26_4_" fill="#FFFFFF" d="M164.939,70.066c0.928,0,1.703,0.104,2.328,0.313c0.64,0.191,1.15,0.473,1.535,0.84
			c0.385,0.352,0.655,0.775,0.815,1.271c0.176,0.496,0.264,1.031,0.264,1.607v1.08c0,0.992-0.11,1.814-0.336,2.473
			c-0.208,0.641-0.624,1.152-1.248,1.535c-0.606,0.385-1.472,0.648-2.592,0.793c-1.104,0.16-2.56,0.24-4.368,0.24h-3.646
			c-1.776,0-3.217-0.08-4.32-0.24c-1.104-0.145-1.969-0.416-2.592-0.816c-0.625-0.398-1.049-0.943-1.272-1.633
			c-0.224-0.688-0.336-1.566-0.336-2.639v-0.6h2.185v0.551c0,0.688,0.072,1.24,0.217,1.656c0.16,0.416,0.464,0.734,0.912,0.961
			c0.447,0.223,1.08,0.375,1.896,0.455c0.832,0.063,1.912,0.096,3.24,0.096h3.672c1.376,0,2.479-0.031,3.313-0.096
			c0.848-0.064,1.496-0.191,1.942-0.385c0.466-0.209,0.769-0.486,0.912-0.84c0.16-0.369,0.24-0.848,0.24-1.439v-0.959
			c0-0.4-0.056-0.73-0.168-0.984c-0.097-0.256-0.296-0.457-0.601-0.6c-0.287-0.16-0.695-0.273-1.225-0.338
			c-0.527-0.063-1.208-0.096-2.04-0.096c-1.2,0-2.416,0.023-3.647,0.072c-1.215,0.031-2.424,0.047-3.623,0.047
			c-1.058,0-2.024-0.047-2.904-0.145c-0.864-0.096-1.608-0.305-2.232-0.623c-0.607-0.336-1.088-0.801-1.439-1.393
			c-0.336-0.607-0.504-1.416-0.504-2.424v-1.008c0-0.943,0.111-1.72,0.336-2.327c0.225-0.624,0.641-1.112,1.248-1.465
			c0.625-0.367,1.479-0.624,2.568-0.769c1.102-0.143,2.526-0.215,4.27-0.215h3.457c1.68,0,3.072,0.063,4.176,0.191
			c1.12,0.128,2.008,0.359,2.664,0.696c0.656,0.319,1.119,0.768,1.392,1.344s0.408,1.313,0.408,2.208v0.504h-2.185v-0.311
			c0-0.512-0.104-0.921-0.313-1.225c-0.208-0.32-0.561-0.568-1.057-0.744c-0.479-0.177-1.135-0.296-1.967-0.359
			c-0.816-0.064-1.84-0.097-3.072-0.097h-3.624c-1.28,0-2.32,0.031-3.12,0.097c-0.801,0.064-1.424,0.191-1.872,0.384
			c-0.446,0.176-0.752,0.433-0.912,0.769c-0.144,0.336-0.216,0.775-0.216,1.32v0.982c0,0.449,0.057,0.832,0.168,1.152
			c0.128,0.305,0.368,0.553,0.721,0.744c0.367,0.191,0.863,0.328,1.487,0.408c0.642,0.08,1.479,0.119,2.521,0.119
			c1.424,0,2.849-0.023,4.271-0.07C162.091,70.09,163.516,70.066,164.939,70.066L164.939,70.066z"/>
		<path id="path18_4_" fill="#FFFFFF" d="M66.387,71.482 M79.634,79.426l-1.92,1.033l-9.048-16.01H66.41l-9.049,16.01l-1.92-1.031
			l9.385-16.585c0.208-0.385,0.527-0.576,0.96-0.576h3.552c0.4,0,0.712,0.191,0.938,0.576L79.634,79.426z"/>
		<rect id="rect863_4_" x="66.609" y="67.957" fill="#FFFFFF" width="1.92" height="1.748"/>
		<rect id="rect863-1_4_" x="110.081" y="67.982" fill="#FFFFFF" width="1.919" height="1.748"/>
	</g>
</g>
<g>
	<g id="layer1_1_">
		<g id="g912_1_">
			<path id="path14_1_" fill="#FF6600" d="M303.943,18.281h-2.184V2.777H299l-8.52,13.584c-0.289,0.434-0.602,0.648-0.938,0.648
				s-0.648-0.215-0.936-0.648l-8.711-13.584h-2.713v15.504H275V1.697c0-0.734,0.376-1.104,1.128-1.104h4.416
				c0.384,0,0.688,0.168,0.912,0.504l8.088,12.625l7.944-12.602c0.207-0.352,0.512-0.527,0.912-0.527h4.438
				c0.736,0,1.104,0.369,1.104,1.104V18.281L303.943,18.281z"/>
			<path id="path16_1_" fill="#FF6600" d="M329.372,12.017c0,0.881-0.031,1.656-0.097,2.328c-0.064,0.672-0.207,1.248-0.432,1.73
				c-0.225,0.479-0.553,0.879-0.984,1.197c-0.432,0.32-1.008,0.576-1.728,0.77c-0.721,0.176-1.616,0.305-2.688,0.385
				c-1.071,0.08-2.352,0.119-3.84,0.119h-2.688c-1.504,0-2.792-0.039-3.863-0.119c-1.057-0.08-1.951-0.209-2.688-0.385
				c-0.721-0.191-1.297-0.447-1.729-0.77c-0.416-0.318-0.744-0.719-0.984-1.197c-0.223-0.48-0.367-1.059-0.432-1.73
				c-0.063-0.672-0.097-1.447-0.097-2.328V6.883c0-0.881,0.032-1.656,0.097-2.328c0.063-0.672,0.209-1.248,0.432-1.729
				c0.24-0.48,0.568-0.881,0.984-1.199c0.432-0.32,1.008-0.568,1.729-0.744c0.736-0.193,1.632-0.328,2.688-0.408
				c1.071-0.08,2.359-0.121,3.863-0.121h2.688c1.488,0,2.769,0.041,3.84,0.121c1.072,0.08,1.969,0.215,2.688,0.408
				c0.72,0.176,1.296,0.424,1.728,0.744c0.433,0.318,0.761,0.719,0.984,1.199c0.225,0.479,0.367,1.057,0.432,1.729
				c0.065,0.672,0.097,1.447,0.097,2.328h-2.185c0-0.641-0.016-1.186-0.047-1.633c-0.033-0.465-0.129-0.855-0.289-1.178
				c-0.16-0.318-0.399-0.574-0.72-0.768c-0.305-0.207-0.735-0.359-1.297-0.455c-0.56-0.113-1.271-0.186-2.136-0.217
				c-0.848-0.047-1.881-0.072-3.096-0.072h-2.688c-1.216,0-2.256,0.025-3.12,0.072c-0.848,0.031-1.552,0.104-2.111,0.217
				c-0.561,0.096-1,0.248-1.32,0.455c-0.319,0.191-0.559,0.449-0.719,0.768c-0.16,0.32-0.256,0.713-0.289,1.178
				c-0.031,0.447-0.047,0.992-0.047,1.633v5.135c0,0.625,0.016,1.168,0.047,1.633c0.033,0.463,0.129,0.855,0.289,1.178
				c0.16,0.318,0.398,0.584,0.719,0.791c0.32,0.191,0.761,0.344,1.32,0.457c0.561,0.096,1.265,0.168,2.111,0.215
				c0.85,0.031,1.889,0.049,3.12,0.049h2.688c1.84,0,3.264-0.049,4.271-0.146c1.024-0.096,1.776-0.295,2.257-0.6
				c0.495-0.303,0.792-0.736,0.889-1.295c0.111-0.576,0.168-1.336,0.168-2.281v-1.055h-8.473V8.777h9.553
				c0.416,0,0.703,0.072,0.863,0.219c0.159,0.143,0.239,0.424,0.239,0.84v2.182H329.372z"/>
			<path id="path20_1_" fill="#FF6600" d="M373.119,18.281h-15.336c-0.721,0-1.08-0.375-1.08-1.127V0.594h2.184v15.504h14.232
				V18.281z"/>
			<path id="path22_1_" fill="#FF6600" d="M384.934,9.81 M398.182,17.754l-1.92,1.033l-9.049-16.01h-2.256l-9.048,16.01
				l-1.921-1.033l9.385-16.584c0.208-0.385,0.527-0.576,0.96-0.576h3.552c0.4,0,0.713,0.191,0.938,0.576L398.182,17.754z"/>
			<path id="path24_1_" fill="#FF6600" d="M400.25,1.697c0-0.734,0.368-1.104,1.104-1.104h12.864c1.313,0,2.4,0.088,3.265,0.264
				c0.863,0.178,1.545,0.48,2.039,0.912c0.496,0.416,0.842,0.969,1.033,1.656c0.207,0.688,0.313,1.545,0.313,2.568
				c0,0.734-0.129,1.326-0.385,1.775c-0.239,0.447-0.575,0.816-1.008,1.104c0.305,0.129,0.584,0.297,0.84,0.504
				c0.256,0.191,0.473,0.447,0.647,0.768c0.175,0.322,0.313,0.73,0.408,1.225c0.112,0.48,0.168,1.072,0.168,1.775
				c0,0.961-0.097,1.77-0.288,2.424c-0.176,0.643-0.52,1.168-1.032,1.584c-0.495,0.4-1.2,0.689-2.11,0.865
				c-0.896,0.176-2.064,0.264-3.506,0.264h-13.248c-0.734,0-1.104-0.377-1.104-1.129V1.697z M419.354,13.123
				c0-0.561-0.022-1.008-0.07-1.346c-0.049-0.352-0.137-0.631-0.266-0.84c-0.127-0.207-0.318-0.367-0.574-0.479
				c-0.24-0.111-0.562-0.217-0.961-0.313c-0.353-0.08-0.601-0.191-0.744-0.336c-0.145-0.16-0.217-0.377-0.217-0.646
				c0-0.273,0.064-0.475,0.192-0.602c0.128-0.145,0.304-0.264,0.528-0.359c0.304-0.129,0.544-0.258,0.72-0.385
				c0.192-0.145,0.336-0.297,0.433-0.457c0.111-0.176,0.185-0.375,0.217-0.6c0.048-0.223,0.07-0.488,0.07-0.791
				c0-0.689-0.063-1.24-0.19-1.656c-0.112-0.416-0.328-0.736-0.647-0.961c-0.32-0.24-0.775-0.391-1.369-0.455
				c-0.576-0.08-1.328-0.121-2.256-0.121h-11.76v13.299h12.145c1.023,0,1.849-0.051,2.473-0.146
				c0.624-0.111,1.104-0.279,1.439-0.504c0.336-0.24,0.561-0.543,0.672-0.912C419.298,14.131,419.354,13.668,419.354,13.123
				L419.354,13.123z"/>
			<path id="path26_1_" fill="#FF6600" d="M439.939,8.394c0.928,0,1.703,0.104,2.328,0.313c0.64,0.191,1.15,0.473,1.535,0.84
				c0.385,0.352,0.655,0.775,0.815,1.271c0.176,0.496,0.264,1.031,0.264,1.607v1.08c0,0.992-0.11,1.814-0.336,2.473
				c-0.208,0.641-0.624,1.152-1.248,1.535c-0.606,0.385-1.472,0.648-2.592,0.793c-1.104,0.16-2.56,0.24-4.368,0.24h-3.646
				c-1.776,0-3.217-0.08-4.32-0.24c-1.104-0.145-1.969-0.416-2.592-0.816c-0.625-0.398-1.049-0.943-1.272-1.633
				c-0.224-0.688-0.336-1.566-0.336-2.639v-0.6h2.185v0.551c0,0.688,0.072,1.24,0.217,1.656c0.16,0.416,0.464,0.734,0.912,0.961
				c0.447,0.223,1.08,0.375,1.896,0.455c0.832,0.063,1.912,0.096,3.24,0.096h3.672c1.376,0,2.479-0.031,3.313-0.096
				c0.848-0.064,1.496-0.191,1.942-0.385c0.466-0.209,0.769-0.486,0.912-0.84c0.16-0.369,0.24-0.848,0.24-1.439v-0.959
				c0-0.4-0.056-0.73-0.168-0.984c-0.097-0.256-0.296-0.457-0.601-0.6c-0.287-0.16-0.695-0.273-1.225-0.338
				c-0.527-0.063-1.208-0.096-2.04-0.096c-1.2,0-2.416,0.023-3.647,0.072c-1.215,0.031-2.424,0.047-3.623,0.047
				c-1.058,0-2.024-0.047-2.904-0.145c-0.864-0.096-1.608-0.305-2.232-0.623c-0.607-0.336-1.088-0.801-1.439-1.393
				c-0.336-0.607-0.504-1.416-0.504-2.424V5.129c0-0.943,0.111-1.719,0.336-2.326c0.225-0.625,0.641-1.113,1.248-1.465
				c0.625-0.367,1.479-0.625,2.568-0.77c1.102-0.143,2.526-0.215,4.27-0.215h3.457c1.68,0,3.072,0.064,4.176,0.191
				c1.12,0.129,2.008,0.359,2.664,0.697c0.656,0.318,1.119,0.768,1.392,1.344s0.408,1.313,0.408,2.207v0.504h-2.185V4.986
				c0-0.512-0.104-0.92-0.313-1.225c-0.208-0.32-0.561-0.568-1.057-0.744c-0.479-0.176-1.135-0.295-1.967-0.359
				c-0.816-0.064-1.84-0.096-3.072-0.096h-3.624c-1.28,0-2.32,0.031-3.12,0.096c-0.801,0.064-1.424,0.191-1.872,0.385
				c-0.446,0.176-0.752,0.432-0.912,0.768c-0.144,0.336-0.216,0.775-0.216,1.32v0.982c0,0.449,0.057,0.832,0.168,1.152
				c0.128,0.305,0.368,0.553,0.721,0.744c0.367,0.191,0.863,0.328,1.487,0.408c0.642,0.08,1.479,0.119,2.521,0.119
				c1.424,0,2.849-0.023,4.271-0.07C437.091,8.418,438.516,8.394,439.939,8.394L439.939,8.394z"/>
			<path id="path18_1_" fill="#FF6600" d="M341.387,9.81 M354.634,17.754l-1.92,1.033l-9.048-16.01h-2.256l-9.049,16.01l-1.92-1.031
				l9.385-16.584c0.208-0.385,0.527-0.576,0.96-0.576h3.552c0.4,0,0.712,0.191,0.938,0.576L354.634,17.754z"/>
			<rect id="rect863_1_" x="341.609" y="6.285" fill="#FF6600" width="1.92" height="1.748"/>
			<rect id="rect863-1_1_" x="385.081" y="6.31" fill="#FF6600" width="1.919" height="1.748"/>
		</g>
	</g>
	<g>
		<path d="M642.127-1.93c1.64-0.264,3.185-0.721,4.791-0.146C645.195-1.002,643.623-0.885,642.127-1.93 M661.78,6.119
			c0.013-0.129,0.045-0.254,0.065-0.383V5.041c-0.065-1.404-0.556-2.711-0.943-4.039c-0.07-0.242-0.296-0.545-0.514-0.619
			c-0.703-0.232-1.824,0.6-1.813,1.338c0.008,0.348,0.13,0.713,0.276,1.037c0.843,1.859,0.916,3.746,0.235,5.662
			c-1.383,3.885-4.04,6.619-7.749,8.303c-4.025,1.826-8.117,1.889-12.13-0.045c-3.225-1.553-5.203-5.371-4.768-8.891
			c0.239-1.947,1.119-3.605,2.294-5.125c0.823-1.064,1.676-2.113,2.815-2.873c0.891-0.594,1.824-0.678,2.795-0.186
			c0.127,0.063,0.266,0.129,0.405,0.141c1.093,0.092,2.188,0.238,3.279,0.236c1.181-0.002,2.255-0.479,3.28-1.031
			c0.346-0.184,0.527-0.488,0.487-0.896c-0.035-0.389-0.293-0.59-0.624-0.699c-0.88-0.285-1.753-0.598-2.649-0.82
			c-1.645-0.408-3.305-0.252-4.964-0.055c-1.641,0.197-3.014-0.219-3.875-1.766c-0.659-1.184-1.16-2.414-1.36-3.77
			c-0.629-4.248,2.828-7.621,7.062-6.902c1.892,0.322,3.457,1.271,4.938,2.406c0.46,0.354,0.753,0.385,1.056,0.043
			c0.358-0.402,0.323-0.791-0.108-1.166c-0.284-0.248-0.58-0.48-0.858-0.732c-1.027-0.932-2.153-1.738-3.457-2.205
			c-1.15-0.414-2.357-0.668-3.539-0.99h-1.739c-0.45,0.105-0.907,0.182-1.348,0.318c-2.591,0.803-4.379,3.057-4.563,5.76
			c-0.235,3.479,1.03,6.395,3.379,8.898c0.237,0.252,0.484,0.5,0.688,0.777c0.285,0.391,0.253,0.666-0.103,0.996
			c-0.221,0.205-0.478,0.375-0.728,0.543c-2.624,1.768-4.739,3.984-6.056,6.895c-1.234,2.734-1.562,5.531-0.399,8.377
			c1.062,2.596,3.039,4.287,5.544,5.416c1.528,0.691,3.14,1.082,4.811,1.238c0.142,0.014,0.283,0.049,0.425,0.074h2.868
			c1.056-0.174,2.126-0.283,3.161-0.533c4.713-1.141,8.735-3.418,11.701-7.336C660.56,10.84,661.564,8.633,661.78,6.119
			 M672.023,0.955c0,14.482-11.781,26.262-26.261,26.262c-14.48,0-26.262-11.779-26.262-26.262
			c0-14.479,11.781-26.261,26.262-26.261C660.242-25.306,672.023-13.524,672.023,0.955 M674.559,0.955
			c0-15.877-12.917-28.796-28.796-28.796s-28.798,12.919-28.798,28.796c0,15.881,12.919,28.797,28.798,28.797
			S674.559,16.836,674.559,0.955"/>
		<path d="M540.611,3.654l0.488-3.125c-0.977-0.307-1.992-0.543-3.042-0.707c-1.05-0.162-2.336-0.244-3.856-0.244
			c-2.5,0-4.466,0.785-5.896,2.35c-1.432,1.568-2.392,3.918-2.882,7.051c-0.307,1.957-0.461,3.533-0.461,4.727
			c0,2.211,0.402,3.818,1.209,4.822c0.808,1.008,2.143,1.508,4.007,1.508c0.762,0,1.698-0.166,2.813-0.5
			c1.113-0.338,1.96-0.678,2.538-1.021l0.327,1.359h3.043l1.792-11.438c-0.833-0.037-1.819-0.055-2.961-0.055
			c-1.195,0-2.218,0.037-3.068,0.109c-0.854,0.072-1.342,0.117-1.468,0.135l-0.516,3.178h3.612l-0.626,3.941
			c-0.452,0.125-1.09,0.252-1.914,0.381c-0.824,0.125-1.545,0.189-2.159,0.189c-0.888,0-1.536-0.244-1.942-0.734
			c-0.408-0.49-0.611-1.223-0.611-2.201c0-0.867,0.109-2.037,0.325-3.504c0.272-1.701,0.599-3.023,0.979-3.967
			c0.38-0.941,0.905-1.629,1.575-2.064s1.584-0.65,2.745-0.65C536.979,3.193,538.964,3.345,540.611,3.654 M553,9.304l0.624-4.021
			c-0.363-0.107-0.852-0.162-1.466-0.162c-0.779,0-1.491,0.182-2.135,0.543c-0.642,0.363-1.262,0.861-1.859,1.494l-0.163-1.875
			h-3.586l-2.311,14.59h4.05l1.494-9.455c0.451-0.344,0.99-0.625,1.615-0.84c0.625-0.219,1.309-0.326,2.052-0.326
			C551.749,9.252,552.311,9.267,553,9.304 M566.881,19.873l2.283-14.59h-4.021l-1.575,9.943c-0.543,0.398-1.073,0.697-1.589,0.898
			c-0.518,0.197-1.083,0.297-1.699,0.297c-1.141,0-1.71-0.488-1.71-1.467c0-0.145,0.017-0.344,0.054-0.598l1.412-9.074h-4.02
			l-1.521,9.563c-0.092,0.58-0.136,1.168-0.136,1.766c0,1.088,0.294,1.93,0.883,2.527c0.587,0.598,1.498,0.896,2.729,0.896
			c1.067,0,1.974-0.131,2.715-0.395c0.744-0.26,1.541-0.682,2.392-1.264l0.219,1.496H566.881z M580.438,11.015
			c0,0.199-0.046,0.689-0.136,1.467c-0.254,1.467-0.643,2.523-1.167,3.166c-0.527,0.643-1.279,0.963-2.256,0.963
			c-0.472,0-0.87-0.025-1.196-0.08c-0.325-0.055-0.68-0.154-1.059-0.301l1.249-7.85l2.608-0.027c0.688,0,1.186,0.217,1.495,0.652
			C580.283,9.439,580.438,10.109,580.438,11.015 M584.133,13.244c0.181-1.123,0.271-2.092,0.271-2.908
			c0-1.773-0.375-3.086-1.127-3.938c-0.753-0.852-1.979-1.277-3.681-1.277c-1.25,0-2.441,0.063-3.572,0.189
			c-1.134,0.129-2.387,0.309-3.763,0.543l-3.233,20.459h4.02l1.089-6.846c0.741,0.379,1.811,0.568,3.205,0.568
			c1.811,0,3.305-0.566,4.482-1.699C582.999,17.205,583.77,15.508,584.133,13.244 M596.248,11.015c0,0.199-0.045,0.689-0.136,1.467
			c-0.255,1.467-0.643,2.523-1.168,3.166c-0.526,0.643-1.276,0.963-2.256,0.963c-0.472,0-0.867-0.025-1.194-0.08
			c-0.326-0.055-0.68-0.154-1.06-0.301l1.25-7.85l2.607-0.027c0.689,0,1.187,0.217,1.495,0.652
			C596.094,9.439,596.248,10.109,596.248,11.015 M599.942,13.244c0.181-1.123,0.272-2.092,0.272-2.908
			c0-1.773-0.375-3.086-1.128-3.938c-0.752-0.852-1.978-1.277-3.682-1.277c-1.249,0-2.44,0.063-3.571,0.189
			c-1.132,0.129-2.387,0.309-3.763,0.543l-3.233,20.459h4.021l1.086-6.846c0.742,0.379,1.812,0.568,3.206,0.568
			c1.812,0,3.305-0.566,4.482-1.699C598.811,17.205,599.582,15.508,599.942,13.244 M612.032,10.256c0,0.453-0.082,1.295-0.245,2.525
			c-0.182,1.123-0.398,1.965-0.652,2.525c-0.253,0.563-0.589,0.951-1.004,1.17c-0.417,0.219-0.987,0.326-1.712,0.326
			c-0.742,0-1.291-0.146-1.644-0.436c-0.354-0.289-0.53-0.824-0.53-1.602c0-0.543,0.055-1.205,0.163-1.984
			c0.181-1.25,0.398-2.189,0.652-2.824s0.588-1.074,1.006-1.318c0.416-0.244,0.995-0.365,1.738-0.365
			c0.814,0,1.389,0.148,1.725,0.447C611.864,9.019,612.032,9.531,612.032,10.256 M616.054,10.445c0-1.268-0.163-2.281-0.489-3.043
			c-0.326-0.76-0.902-1.33-1.726-1.711c-0.824-0.381-1.996-0.57-3.519-0.57c-1.667,0-3.006,0.189-4.021,0.57
			s-1.83,1.078-2.444,2.092c-0.617,1.014-1.078,2.48-1.388,4.4c-0.144,0.924-0.216,1.85-0.216,2.771c0,3.389,1.91,5.08,5.731,5.08
			c1.649,0,2.984-0.189,4.009-0.568c1.022-0.383,1.847-1.053,2.471-2.014c0.625-0.959,1.073-2.318,1.345-4.074
			C615.971,12.31,616.054,11.334,616.054,10.445"/>
		<path d="M606.234,38.859c0,1.271,0.979,1.41,1.594,1.385c0,0,2.405-0.09,2.94-0.162v-1.08h-2.629c-0.274,0-0.581,0.01-0.585-0.49
			v-1.078l2.786-0.088V36.26l-2.786-0.098v-1.076c0-0.256,0-0.527,0.49-0.527h2.724v-1.092c-0.607-0.084-3.034-0.15-3.034-0.15
			c-0.652-0.014-1.5,0.236-1.5,1.432V38.859z M594.494,36.746c0,2.188,0.603,3.508,2.347,3.525c0.987,0.014,1.785-0.07,2.403-0.26
			v-1.033c0,0-1.098,0.076-2.086,0.076c-1.09,0-1.345-0.744-1.345-2.291c0-2.086,0.373-2.307,1.338-2.307
			c0.924,0,2.083,0.129,2.093,0.129v-1.033c-0.743-0.219-1.436-0.313-2.403-0.313C594.966,33.24,594.494,34.541,594.494,36.746
			 M582.079,40.215h1.327v-4.406l2.746,4.406h1.32v-6.898h-1.32v4.455l-2.737-4.455h-1.336V40.215z M571.355,37.517l0.828-2.463
			l0.777,2.463H571.355z M569.098,40.215h1.417l0.498-1.527h2.261l0.489,1.527h1.403l-2.24-6.898h-1.5L569.098,40.215z
			 M560.835,40.215h1.319v-6.898h-1.319V40.215z M549.55,38.869c0,1.066,0.685,1.346,1.438,1.346h2.831V39h-2.364
			c-0.274,0-0.585,0.008-0.585-0.49v-5.193h-1.319V38.869z M538.263,38.869c0,1.066,0.685,1.346,1.438,1.346h2.832V39h-2.365
			c-0.273,0-0.585,0.008-0.585-0.49v-5.193h-1.319V38.869z M527.542,37.517l0.828-2.463l0.775,2.463H527.542z M525.284,40.215h1.416
			l0.499-1.527h2.259l0.491,1.527h1.403l-2.24-6.898h-1.501L525.284,40.215z"/>
	</g>
	<line fill="none" stroke="#000000" stroke-miterlimit="10" x1="487.941" y1="-27.841" x2="487.941" y2="40.273"/>
</g>
<g>
	<g id="layer1_2_">
		<g id="g912_2_">
			<path id="path14_2_" fill="#FF6600" d="M303.943,106.281h-2.184V90.777H299l-8.52,13.584c-0.289,0.434-0.602,0.648-0.938,0.648
				s-0.648-0.215-0.936-0.648l-8.711-13.584h-2.713v15.504H275V89.697c0-0.734,0.376-1.104,1.128-1.104h4.416
				c0.384,0,0.688,0.168,0.912,0.504l8.088,12.625l7.944-12.602c0.207-0.352,0.512-0.527,0.912-0.527h4.438
				c0.736,0,1.104,0.369,1.104,1.104V106.281L303.943,106.281z"/>
			<path id="path16_2_" fill="#FF6600" d="M329.372,100.017c0,0.881-0.031,1.656-0.097,2.328c-0.064,0.672-0.207,1.248-0.432,1.73
				c-0.225,0.479-0.553,0.879-0.984,1.197c-0.432,0.32-1.008,0.576-1.728,0.77c-0.721,0.176-1.616,0.305-2.688,0.385
				c-1.071,0.08-2.352,0.119-3.84,0.119h-2.688c-1.504,0-2.792-0.039-3.863-0.119c-1.057-0.08-1.951-0.209-2.688-0.385
				c-0.721-0.191-1.297-0.447-1.729-0.77c-0.416-0.318-0.744-0.719-0.984-1.197c-0.223-0.48-0.367-1.059-0.432-1.73
				c-0.063-0.672-0.097-1.447-0.097-2.328v-5.135c0-0.881,0.032-1.656,0.097-2.328c0.063-0.672,0.209-1.248,0.432-1.729
				c0.24-0.48,0.568-0.881,0.984-1.199c0.432-0.32,1.008-0.568,1.729-0.744c0.736-0.193,1.632-0.328,2.688-0.408
				c1.071-0.08,2.359-0.121,3.863-0.121h2.688c1.488,0,2.769,0.041,3.84,0.121c1.072,0.08,1.969,0.215,2.688,0.408
				c0.72,0.176,1.296,0.424,1.728,0.744c0.433,0.318,0.761,0.719,0.984,1.199c0.225,0.479,0.367,1.057,0.432,1.729
				c0.065,0.672,0.097,1.447,0.097,2.328h-2.185c0-0.641-0.016-1.186-0.047-1.633c-0.033-0.465-0.129-0.855-0.289-1.178
				c-0.16-0.318-0.399-0.574-0.72-0.768c-0.305-0.207-0.735-0.359-1.297-0.455c-0.56-0.113-1.271-0.186-2.136-0.217
				c-0.848-0.047-1.881-0.072-3.096-0.072h-2.688c-1.216,0-2.256,0.025-3.12,0.072c-0.848,0.031-1.552,0.104-2.111,0.217
				c-0.561,0.096-1,0.248-1.32,0.455c-0.319,0.191-0.559,0.449-0.719,0.768c-0.16,0.32-0.256,0.713-0.289,1.178
				c-0.031,0.447-0.047,0.992-0.047,1.633v5.135c0,0.625,0.016,1.168,0.047,1.633c0.033,0.463,0.129,0.855,0.289,1.178
				c0.16,0.318,0.398,0.584,0.719,0.791c0.32,0.191,0.761,0.344,1.32,0.457c0.561,0.096,1.265,0.168,2.111,0.215
				c0.85,0.031,1.889,0.049,3.12,0.049h2.688c1.84,0,3.264-0.049,4.271-0.146c1.024-0.096,1.776-0.295,2.257-0.6
				c0.495-0.303,0.792-0.736,0.889-1.295c0.111-0.576,0.168-1.336,0.168-2.281v-1.055h-8.473v-2.186h9.553
				c0.416,0,0.703,0.072,0.863,0.219c0.159,0.143,0.239,0.424,0.239,0.84v2.182H329.372z"/>
			<path id="path20_2_" fill="#FF6600" d="M373.119,106.281h-15.336c-0.721,0-1.08-0.375-1.08-1.127V88.594h2.184v15.504h14.232
				V106.281z"/>
			<path id="path22_2_" fill="#FF6600" d="M384.934,97.81 M398.182,105.754l-1.92,1.033l-9.049-16.01h-2.256l-9.048,16.01
				l-1.921-1.033l9.385-16.584c0.208-0.385,0.527-0.576,0.96-0.576h3.552c0.4,0,0.713,0.191,0.938,0.576L398.182,105.754z"/>
			<path id="path24_2_" fill="#FF6600" d="M400.25,89.697c0-0.734,0.368-1.104,1.104-1.104h12.864c1.313,0,2.4,0.088,3.265,0.264
				c0.863,0.178,1.545,0.48,2.039,0.912c0.496,0.416,0.842,0.969,1.033,1.656c0.207,0.688,0.313,1.545,0.313,2.568
				c0,0.734-0.129,1.326-0.385,1.775c-0.239,0.447-0.575,0.816-1.008,1.104c0.305,0.129,0.584,0.297,0.84,0.504
				c0.256,0.191,0.473,0.447,0.647,0.768c0.175,0.322,0.313,0.73,0.408,1.225c0.112,0.48,0.168,1.072,0.168,1.775
				c0,0.961-0.097,1.77-0.288,2.424c-0.176,0.643-0.52,1.168-1.032,1.584c-0.495,0.4-1.2,0.689-2.11,0.865
				c-0.896,0.176-2.064,0.264-3.506,0.264h-13.248c-0.734,0-1.104-0.377-1.104-1.129V89.697z M419.354,101.123
				c0-0.561-0.022-1.008-0.07-1.346c-0.049-0.352-0.137-0.631-0.266-0.84c-0.127-0.207-0.318-0.367-0.574-0.479
				c-0.24-0.111-0.562-0.217-0.961-0.313c-0.353-0.08-0.601-0.191-0.744-0.336c-0.145-0.16-0.217-0.377-0.217-0.646
				c0-0.273,0.064-0.475,0.192-0.602c0.128-0.145,0.304-0.264,0.528-0.359c0.304-0.129,0.544-0.258,0.72-0.385
				c0.192-0.145,0.336-0.297,0.433-0.457c0.111-0.176,0.185-0.375,0.217-0.6c0.048-0.223,0.07-0.488,0.07-0.791
				c0-0.689-0.063-1.24-0.19-1.656c-0.112-0.416-0.328-0.736-0.647-0.961c-0.32-0.24-0.775-0.391-1.369-0.455
				c-0.576-0.08-1.328-0.121-2.256-0.121h-11.76v13.299h12.145c1.023,0,1.849-0.051,2.473-0.146
				c0.624-0.111,1.104-0.279,1.439-0.504c0.336-0.24,0.561-0.543,0.672-0.912C419.298,102.131,419.354,101.668,419.354,101.123
				L419.354,101.123z"/>
			<path id="path26_2_" fill="#FF6600" d="M439.939,96.394c0.928,0,1.703,0.104,2.328,0.313c0.64,0.191,1.15,0.473,1.535,0.84
				c0.385,0.352,0.655,0.775,0.815,1.271c0.176,0.496,0.264,1.031,0.264,1.607v1.08c0,0.992-0.11,1.814-0.336,2.473
				c-0.208,0.641-0.624,1.152-1.248,1.535c-0.606,0.385-1.472,0.648-2.592,0.793c-1.104,0.16-2.56,0.24-4.368,0.24h-3.646
				c-1.776,0-3.217-0.08-4.32-0.24c-1.104-0.145-1.969-0.416-2.592-0.816c-0.625-0.398-1.049-0.943-1.272-1.633
				c-0.224-0.688-0.336-1.566-0.336-2.639v-0.6h2.185v0.551c0,0.688,0.072,1.24,0.217,1.656c0.16,0.416,0.464,0.734,0.912,0.961
				c0.447,0.223,1.08,0.375,1.896,0.455c0.832,0.063,1.912,0.096,3.24,0.096h3.672c1.376,0,2.479-0.031,3.313-0.096
				c0.848-0.064,1.496-0.191,1.942-0.385c0.466-0.209,0.769-0.486,0.912-0.84c0.16-0.369,0.24-0.848,0.24-1.439v-0.959
				c0-0.4-0.056-0.73-0.168-0.984c-0.097-0.256-0.296-0.457-0.601-0.6c-0.287-0.16-0.695-0.273-1.225-0.338
				c-0.527-0.063-1.208-0.096-2.04-0.096c-1.2,0-2.416,0.023-3.647,0.072c-1.215,0.031-2.424,0.047-3.623,0.047
				c-1.058,0-2.024-0.047-2.904-0.145c-0.864-0.096-1.608-0.305-2.232-0.623c-0.607-0.336-1.088-0.801-1.439-1.393
				c-0.336-0.607-0.504-1.416-0.504-2.424v-1.008c0-0.943,0.111-1.719,0.336-2.326c0.225-0.625,0.641-1.113,1.248-1.465
				c0.625-0.367,1.479-0.625,2.568-0.77c1.102-0.143,2.526-0.215,4.27-0.215h3.457c1.68,0,3.072,0.064,4.176,0.191
				c1.12,0.129,2.008,0.359,2.664,0.697c0.656,0.318,1.119,0.768,1.392,1.344s0.408,1.313,0.408,2.207v0.504h-2.185v-0.311
				c0-0.512-0.104-0.92-0.313-1.225c-0.208-0.32-0.561-0.568-1.057-0.744c-0.479-0.176-1.135-0.295-1.967-0.359
				c-0.816-0.064-1.84-0.096-3.072-0.096h-3.624c-1.28,0-2.32,0.031-3.12,0.096c-0.801,0.064-1.424,0.191-1.872,0.385
				c-0.446,0.176-0.752,0.432-0.912,0.768c-0.144,0.336-0.216,0.775-0.216,1.32v0.982c0,0.449,0.057,0.832,0.168,1.152
				c0.128,0.305,0.368,0.553,0.721,0.744c0.367,0.191,0.863,0.328,1.487,0.408c0.642,0.08,1.479,0.119,2.521,0.119
				c1.424,0,2.849-0.023,4.271-0.07C437.091,96.418,438.516,96.394,439.939,96.394L439.939,96.394z"/>
			<path id="path18_2_" fill="#FF6600" d="M341.387,97.81 M354.634,105.754l-1.92,1.033l-9.048-16.01h-2.256l-9.049,16.01
				l-1.92-1.031l9.385-16.584c0.208-0.385,0.527-0.576,0.96-0.576h3.552c0.4,0,0.712,0.191,0.938,0.576L354.634,105.754z"/>
			<rect id="rect863_2_" x="341.609" y="94.285" fill="#FF6600" width="1.92" height="1.748"/>
			<rect id="rect863-1_2_" x="385.081" y="94.31" fill="#FF6600" width="1.919" height="1.748"/>
		</g>
	</g>
	<g>
		<path fill="#FFFFFF" d="M642.127,86.07c1.64-0.264,3.185-0.721,4.791-0.146C645.195,86.998,643.623,87.115,642.127,86.07
			 M661.78,94.119c0.013-0.129,0.045-0.254,0.065-0.383v-0.695c-0.065-1.404-0.556-2.711-0.943-4.039
			c-0.07-0.242-0.296-0.545-0.514-0.619c-0.703-0.232-1.824,0.6-1.813,1.338c0.008,0.348,0.13,0.713,0.276,1.037
			c0.843,1.859,0.916,3.746,0.235,5.662c-1.383,3.885-4.04,6.619-7.749,8.303c-4.025,1.826-8.117,1.889-12.13-0.045
			c-3.225-1.553-5.203-5.371-4.768-8.891c0.239-1.947,1.119-3.605,2.294-5.125c0.823-1.064,1.676-2.113,2.815-2.873
			c0.891-0.594,1.824-0.678,2.795-0.186c0.127,0.063,0.266,0.129,0.405,0.141c1.093,0.092,2.188,0.238,3.279,0.236
			c1.181-0.002,2.255-0.479,3.28-1.031c0.346-0.184,0.527-0.488,0.487-0.896c-0.035-0.389-0.293-0.59-0.624-0.699
			c-0.88-0.285-1.753-0.598-2.649-0.82c-1.645-0.408-3.305-0.252-4.964-0.055c-1.641,0.197-3.014-0.219-3.875-1.766
			c-0.659-1.184-1.16-2.414-1.36-3.77c-0.629-4.248,2.828-7.621,7.062-6.902c1.892,0.322,3.457,1.271,4.938,2.406
			c0.46,0.354,0.753,0.385,1.056,0.043c0.358-0.402,0.323-0.791-0.108-1.166c-0.284-0.248-0.58-0.48-0.858-0.732
			c-1.027-0.932-2.153-1.738-3.457-2.205c-1.15-0.414-2.357-0.668-3.539-0.99h-1.739c-0.45,0.105-0.907,0.182-1.348,0.318
			c-2.591,0.803-4.379,3.057-4.563,5.76c-0.235,3.479,1.03,6.395,3.379,8.898c0.237,0.252,0.484,0.5,0.688,0.777
			c0.285,0.391,0.253,0.666-0.103,0.996c-0.221,0.205-0.478,0.375-0.728,0.543c-2.624,1.768-4.739,3.984-6.056,6.895
			c-1.234,2.734-1.562,5.531-0.399,8.377c1.062,2.596,3.039,4.287,5.544,5.416c1.528,0.691,3.14,1.082,4.811,1.238
			c0.142,0.014,0.283,0.049,0.425,0.074h2.868c1.056-0.174,2.126-0.283,3.161-0.533c4.713-1.141,8.735-3.418,11.701-7.336
			C660.56,98.84,661.564,96.633,661.78,94.119 M672.023,88.955c0,14.482-11.781,26.262-26.261,26.262
			c-14.48,0-26.262-11.779-26.262-26.262c0-14.479,11.781-26.261,26.262-26.261C660.242,62.694,672.023,74.476,672.023,88.955
			 M674.559,88.955c0-15.877-12.917-28.796-28.796-28.796s-28.798,12.919-28.798,28.796c0,15.881,12.919,28.797,28.798,28.797
			S674.559,104.836,674.559,88.955"/>
		<path fill="#FFFFFF" d="M540.611,91.654l0.488-3.125c-0.977-0.307-1.992-0.543-3.042-0.707c-1.05-0.162-2.336-0.244-3.856-0.244
			c-2.5,0-4.466,0.785-5.896,2.35c-1.432,1.568-2.392,3.918-2.882,7.051c-0.307,1.957-0.461,3.533-0.461,4.727
			c0,2.211,0.402,3.818,1.209,4.822c0.808,1.008,2.143,1.508,4.007,1.508c0.762,0,1.698-0.166,2.813-0.5
			c1.113-0.338,1.96-0.678,2.538-1.021l0.327,1.359h3.043l1.792-11.438c-0.833-0.037-1.819-0.055-2.961-0.055
			c-1.195,0-2.218,0.037-3.068,0.109c-0.854,0.072-1.342,0.117-1.468,0.135l-0.516,3.178h3.612l-0.626,3.941
			c-0.452,0.125-1.09,0.252-1.914,0.381c-0.824,0.125-1.545,0.189-2.159,0.189c-0.888,0-1.536-0.244-1.942-0.734
			c-0.408-0.49-0.611-1.223-0.611-2.201c0-0.867,0.109-2.037,0.325-3.504c0.272-1.701,0.599-3.023,0.979-3.967
			c0.38-0.941,0.905-1.629,1.575-2.064s1.584-0.65,2.745-0.65C536.979,91.193,538.964,91.345,540.611,91.654 M553,97.304
			l0.624-4.021c-0.363-0.107-0.852-0.162-1.466-0.162c-0.779,0-1.491,0.182-2.135,0.543c-0.642,0.363-1.262,0.861-1.859,1.494
			l-0.163-1.875h-3.586l-2.311,14.59h4.05l1.494-9.455c0.451-0.344,0.99-0.625,1.615-0.84c0.625-0.219,1.309-0.326,2.052-0.326
			C551.749,97.252,552.311,97.267,553,97.304 M566.881,107.873l2.283-14.59h-4.021l-1.575,9.943
			c-0.543,0.398-1.073,0.697-1.589,0.898c-0.518,0.197-1.083,0.297-1.699,0.297c-1.141,0-1.71-0.488-1.71-1.467
			c0-0.145,0.017-0.344,0.054-0.598l1.412-9.074h-4.02l-1.521,9.563c-0.092,0.58-0.136,1.168-0.136,1.766
			c0,1.088,0.294,1.93,0.883,2.527c0.587,0.598,1.498,0.896,2.729,0.896c1.067,0,1.974-0.131,2.715-0.395
			c0.744-0.26,1.541-0.682,2.392-1.264l0.219,1.496H566.881z M580.438,99.015c0,0.199-0.046,0.689-0.136,1.467
			c-0.254,1.467-0.643,2.523-1.167,3.166c-0.527,0.643-1.279,0.963-2.256,0.963c-0.472,0-0.87-0.025-1.196-0.08
			c-0.325-0.055-0.68-0.154-1.059-0.301l1.249-7.85l2.608-0.027c0.688,0,1.186,0.217,1.495,0.652
			C580.283,97.439,580.438,98.109,580.438,99.015 M584.133,101.244c0.181-1.123,0.271-2.092,0.271-2.908
			c0-1.773-0.375-3.086-1.127-3.938c-0.753-0.852-1.979-1.277-3.681-1.277c-1.25,0-2.441,0.063-3.572,0.189
			c-1.134,0.129-2.387,0.309-3.763,0.543l-3.233,20.459h4.02l1.089-6.846c0.741,0.379,1.811,0.568,3.205,0.568
			c1.811,0,3.305-0.566,4.482-1.699C582.999,105.205,583.77,103.508,584.133,101.244 M596.248,99.015
			c0,0.199-0.045,0.689-0.136,1.467c-0.255,1.467-0.643,2.523-1.168,3.166c-0.526,0.643-1.276,0.963-2.256,0.963
			c-0.472,0-0.867-0.025-1.194-0.08c-0.326-0.055-0.68-0.154-1.06-0.301l1.25-7.85l2.607-0.027c0.689,0,1.187,0.217,1.495,0.652
			C596.094,97.439,596.248,98.109,596.248,99.015 M599.942,101.244c0.181-1.123,0.272-2.092,0.272-2.908
			c0-1.773-0.375-3.086-1.128-3.938c-0.752-0.852-1.978-1.277-3.682-1.277c-1.249,0-2.44,0.063-3.571,0.189
			c-1.132,0.129-2.387,0.309-3.763,0.543l-3.233,20.459h4.021l1.086-6.846c0.742,0.379,1.812,0.568,3.206,0.568
			c1.812,0,3.305-0.566,4.482-1.699C598.811,105.205,599.582,103.508,599.942,101.244 M612.032,98.256
			c0,0.453-0.082,1.295-0.245,2.525c-0.182,1.123-0.398,1.965-0.652,2.525c-0.253,0.563-0.589,0.951-1.004,1.17
			c-0.417,0.219-0.987,0.326-1.712,0.326c-0.742,0-1.291-0.146-1.644-0.436c-0.354-0.289-0.53-0.824-0.53-1.602
			c0-0.543,0.055-1.205,0.163-1.984c0.181-1.25,0.398-2.189,0.652-2.824s0.588-1.074,1.006-1.318
			c0.416-0.244,0.995-0.365,1.738-0.365c0.814,0,1.389,0.148,1.725,0.447C611.864,97.019,612.032,97.531,612.032,98.256
			 M616.054,98.445c0-1.268-0.163-2.281-0.489-3.043c-0.326-0.76-0.902-1.33-1.726-1.711c-0.824-0.381-1.996-0.57-3.519-0.57
			c-1.667,0-3.006,0.189-4.021,0.57s-1.83,1.078-2.444,2.092c-0.617,1.014-1.078,2.48-1.388,4.4
			c-0.144,0.924-0.216,1.85-0.216,2.771c0,3.389,1.91,5.08,5.731,5.08c1.649,0,2.984-0.189,4.009-0.568
			c1.022-0.383,1.847-1.053,2.471-2.014c0.625-0.959,1.073-2.318,1.345-4.074C615.971,100.31,616.054,99.334,616.054,98.445"/>
		<path fill="#FFFFFF" d="M606.234,126.859c0,1.271,0.979,1.41,1.594,1.385c0,0,2.405-0.09,2.94-0.162v-1.08h-2.629
			c-0.274,0-0.581,0.01-0.585-0.49v-1.078l2.786-0.088v-1.086l-2.786-0.098v-1.076c0-0.256,0-0.527,0.49-0.527h2.724v-1.092
			c-0.607-0.084-3.034-0.15-3.034-0.15c-0.652-0.014-1.5,0.236-1.5,1.432V126.859z M594.494,124.746
			c0,2.188,0.603,3.508,2.347,3.525c0.987,0.014,1.785-0.07,2.403-0.26v-1.033c0,0-1.098,0.076-2.086,0.076
			c-1.09,0-1.345-0.744-1.345-2.291c0-2.086,0.373-2.307,1.338-2.307c0.924,0,2.083,0.129,2.093,0.129v-1.033
			c-0.743-0.219-1.436-0.313-2.403-0.313C594.966,121.24,594.494,122.541,594.494,124.746 M582.079,128.215h1.327v-4.406
			l2.746,4.406h1.32v-6.898h-1.32v4.455l-2.737-4.455h-1.336V128.215z M571.355,125.517l0.828-2.463l0.777,2.463H571.355z
			 M569.098,128.215h1.417l0.498-1.527h2.261l0.489,1.527h1.403l-2.24-6.898h-1.5L569.098,128.215z M560.835,128.215h1.319v-6.898
			h-1.319V128.215z M549.55,126.869c0,1.066,0.685,1.346,1.438,1.346h2.831V127h-2.364c-0.274,0-0.585,0.008-0.585-0.49v-5.193
			h-1.319V126.869z M538.263,126.869c0,1.066,0.685,1.346,1.438,1.346h2.832V127h-2.365c-0.273,0-0.585,0.008-0.585-0.49v-5.193
			h-1.319V126.869z M527.542,125.517l0.828-2.463l0.775,2.463H527.542z M525.284,128.215h1.416l0.499-1.527h2.259l0.491,1.527h1.403
			l-2.24-6.898h-1.501L525.284,128.215z"/>
	</g>
	<line fill="none" stroke="#FFFFFF" stroke-miterlimit="10" x1="487.941" y1="60.159" x2="487.941" y2="128.273"/>
</g>
<g>
	<g id="layer1_3_">
		<g id="g912_3_">
			<path id="path14_3_" fill="#FFFFFF" d="M303.943,195.781h-2.184v-15.504H299l-8.52,13.584c-0.289,0.434-0.602,0.648-0.938,0.648
				s-0.648-0.215-0.936-0.648l-8.711-13.584h-2.713v15.504H275v-16.584c0-0.734,0.376-1.104,1.128-1.104h4.416
				c0.384,0,0.688,0.168,0.912,0.504l8.088,12.625l7.944-12.602c0.207-0.352,0.512-0.527,0.912-0.527h4.438
				c0.736,0,1.104,0.369,1.104,1.104V195.781L303.943,195.781z"/>
			<path id="path16_3_" fill="#FFFFFF" d="M329.372,189.517c0,0.881-0.031,1.656-0.097,2.328c-0.064,0.672-0.207,1.248-0.432,1.73
				c-0.225,0.479-0.553,0.879-0.984,1.197c-0.432,0.32-1.008,0.576-1.728,0.77c-0.721,0.176-1.616,0.305-2.688,0.385
				c-1.071,0.08-2.352,0.119-3.84,0.119h-2.688c-1.504,0-2.792-0.039-3.863-0.119c-1.057-0.08-1.951-0.209-2.688-0.385
				c-0.721-0.191-1.297-0.447-1.729-0.77c-0.416-0.318-0.744-0.719-0.984-1.197c-0.223-0.48-0.367-1.059-0.432-1.73
				c-0.063-0.672-0.097-1.447-0.097-2.328v-5.135c0-0.881,0.032-1.656,0.097-2.328c0.063-0.672,0.209-1.248,0.432-1.729
				c0.24-0.48,0.568-0.881,0.984-1.199c0.432-0.32,1.008-0.568,1.729-0.744c0.736-0.193,1.632-0.328,2.688-0.408
				c1.071-0.08,2.359-0.121,3.863-0.121h2.688c1.488,0,2.769,0.041,3.84,0.121c1.072,0.08,1.969,0.215,2.688,0.408
				c0.72,0.176,1.296,0.424,1.728,0.744c0.433,0.318,0.761,0.719,0.984,1.199c0.225,0.479,0.367,1.057,0.432,1.729
				c0.065,0.672,0.097,1.447,0.097,2.328h-2.185c0-0.641-0.016-1.186-0.047-1.633c-0.033-0.465-0.129-0.855-0.289-1.178
				c-0.16-0.318-0.399-0.574-0.72-0.768c-0.305-0.207-0.735-0.359-1.297-0.455c-0.56-0.113-1.271-0.186-2.136-0.217
				c-0.848-0.047-1.881-0.072-3.096-0.072h-2.688c-1.216,0-2.256,0.025-3.12,0.072c-0.848,0.031-1.552,0.104-2.111,0.217
				c-0.561,0.096-1,0.248-1.32,0.455c-0.319,0.191-0.559,0.449-0.719,0.768c-0.16,0.32-0.256,0.713-0.289,1.178
				c-0.031,0.447-0.047,0.992-0.047,1.633v5.135c0,0.625,0.016,1.168,0.047,1.633c0.033,0.463,0.129,0.855,0.289,1.178
				c0.16,0.318,0.398,0.584,0.719,0.791c0.32,0.191,0.761,0.344,1.32,0.457c0.561,0.096,1.265,0.168,2.111,0.215
				c0.85,0.031,1.889,0.049,3.12,0.049h2.688c1.84,0,3.264-0.049,4.271-0.146c1.024-0.096,1.776-0.295,2.257-0.6
				c0.495-0.303,0.792-0.736,0.889-1.295c0.111-0.576,0.168-1.336,0.168-2.281v-1.055h-8.473v-2.186h9.553
				c0.416,0,0.703,0.072,0.863,0.219c0.159,0.143,0.239,0.424,0.239,0.84v2.182H329.372z"/>
			<path id="path20_3_" fill="#FFFFFF" d="M373.119,195.781h-15.336c-0.721,0-1.08-0.375-1.08-1.127v-16.561h2.184v15.504h14.232
				V195.781z"/>
			<path id="path22_3_" fill="#FFFFFF" d="M384.934,187.31 M398.182,195.254l-1.92,1.033l-9.049-16.01h-2.256l-9.048,16.01
				l-1.921-1.033l9.385-16.584c0.208-0.385,0.527-0.576,0.96-0.576h3.552c0.4,0,0.713,0.191,0.938,0.576L398.182,195.254z"/>
			<path id="path24_3_" fill="#FFFFFF" d="M400.25,179.197c0-0.734,0.368-1.104,1.104-1.104h12.864c1.313,0,2.4,0.088,3.265,0.264
				c0.863,0.178,1.545,0.48,2.039,0.912c0.496,0.416,0.842,0.969,1.033,1.656c0.207,0.688,0.313,1.545,0.313,2.568
				c0,0.734-0.129,1.326-0.385,1.775c-0.239,0.447-0.575,0.816-1.008,1.104c0.305,0.129,0.584,0.297,0.84,0.504
				c0.256,0.191,0.473,0.447,0.647,0.768c0.175,0.322,0.313,0.73,0.408,1.225c0.112,0.48,0.168,1.072,0.168,1.775
				c0,0.961-0.097,1.77-0.288,2.424c-0.176,0.643-0.52,1.168-1.032,1.584c-0.495,0.4-1.2,0.689-2.11,0.865
				c-0.896,0.176-2.064,0.264-3.506,0.264h-13.248c-0.734,0-1.104-0.377-1.104-1.129V179.197z M419.354,190.623
				c0-0.561-0.022-1.008-0.07-1.346c-0.049-0.352-0.137-0.631-0.266-0.84c-0.127-0.207-0.318-0.367-0.574-0.479
				c-0.24-0.111-0.562-0.217-0.961-0.313c-0.353-0.08-0.601-0.191-0.744-0.336c-0.145-0.16-0.217-0.377-0.217-0.646
				c0-0.273,0.064-0.475,0.192-0.602c0.128-0.145,0.304-0.264,0.528-0.359c0.304-0.129,0.544-0.258,0.72-0.385
				c0.192-0.145,0.336-0.297,0.433-0.457c0.111-0.176,0.185-0.375,0.217-0.6c0.048-0.223,0.07-0.488,0.07-0.791
				c0-0.689-0.063-1.24-0.19-1.656c-0.112-0.416-0.328-0.736-0.647-0.961c-0.32-0.24-0.775-0.391-1.369-0.455
				c-0.576-0.08-1.328-0.121-2.256-0.121h-11.76v13.299h12.145c1.023,0,1.849-0.051,2.473-0.146
				c0.624-0.111,1.104-0.279,1.439-0.504c0.336-0.24,0.561-0.543,0.672-0.912C419.298,191.631,419.354,191.168,419.354,190.623
				L419.354,190.623z"/>
			<path id="path26_3_" fill="#FFFFFF" d="M439.939,185.894c0.928,0,1.703,0.104,2.328,0.313c0.64,0.191,1.15,0.473,1.535,0.84
				c0.385,0.352,0.655,0.775,0.815,1.271c0.176,0.496,0.264,1.031,0.264,1.607v1.08c0,0.992-0.11,1.814-0.336,2.473
				c-0.208,0.641-0.624,1.152-1.248,1.535c-0.606,0.385-1.472,0.648-2.592,0.793c-1.104,0.16-2.56,0.24-4.368,0.24h-3.646
				c-1.776,0-3.217-0.08-4.32-0.24c-1.104-0.145-1.969-0.416-2.592-0.816c-0.625-0.398-1.049-0.943-1.272-1.633
				c-0.224-0.688-0.336-1.566-0.336-2.639v-0.6h2.185v0.551c0,0.688,0.072,1.24,0.217,1.656c0.16,0.416,0.464,0.734,0.912,0.961
				c0.447,0.223,1.08,0.375,1.896,0.455c0.832,0.063,1.912,0.096,3.24,0.096h3.672c1.376,0,2.479-0.031,3.313-0.096
				c0.848-0.064,1.496-0.191,1.942-0.385c0.466-0.209,0.769-0.486,0.912-0.84c0.16-0.369,0.24-0.848,0.24-1.439v-0.959
				c0-0.4-0.056-0.73-0.168-0.984c-0.097-0.256-0.296-0.457-0.601-0.6c-0.287-0.16-0.695-0.273-1.225-0.338
				c-0.527-0.063-1.208-0.096-2.04-0.096c-1.2,0-2.416,0.023-3.647,0.072c-1.215,0.031-2.424,0.047-3.623,0.047
				c-1.058,0-2.024-0.047-2.904-0.145c-0.864-0.096-1.608-0.305-2.232-0.623c-0.607-0.336-1.088-0.801-1.439-1.393
				c-0.336-0.607-0.504-1.416-0.504-2.424v-1.008c0-0.943,0.111-1.719,0.336-2.326c0.225-0.625,0.641-1.113,1.248-1.465
				c0.625-0.367,1.479-0.625,2.568-0.77c1.102-0.143,2.526-0.215,4.27-0.215h3.457c1.68,0,3.072,0.064,4.176,0.191
				c1.12,0.129,2.008,0.359,2.664,0.697c0.656,0.318,1.119,0.768,1.392,1.344s0.408,1.313,0.408,2.207v0.504h-2.185v-0.311
				c0-0.512-0.104-0.92-0.313-1.225c-0.208-0.32-0.561-0.568-1.057-0.744c-0.479-0.176-1.135-0.295-1.967-0.359
				c-0.816-0.064-1.84-0.096-3.072-0.096h-3.624c-1.28,0-2.32,0.031-3.12,0.096c-0.801,0.064-1.424,0.191-1.872,0.385
				c-0.446,0.176-0.752,0.432-0.912,0.768c-0.144,0.336-0.216,0.775-0.216,1.32v0.982c0,0.449,0.057,0.832,0.168,1.152
				c0.128,0.305,0.368,0.553,0.721,0.744c0.367,0.191,0.863,0.328,1.487,0.408c0.642,0.08,1.479,0.119,2.521,0.119
				c1.424,0,2.849-0.023,4.271-0.07C437.091,185.918,438.516,185.894,439.939,185.894L439.939,185.894z"/>
			<path id="path18_3_" fill="#FFFFFF" d="M341.387,187.31 M354.634,195.254l-1.92,1.033l-9.048-16.01h-2.256l-9.049,16.01
				l-1.92-1.031l9.385-16.584c0.208-0.385,0.527-0.576,0.96-0.576h3.552c0.4,0,0.712,0.191,0.938,0.576L354.634,195.254z"/>
			<rect id="rect863_3_" x="341.609" y="183.785" fill="#FFFFFF" width="1.92" height="1.748"/>
			<rect id="rect863-1_3_" x="385.081" y="183.81" fill="#FFFFFF" width="1.919" height="1.748"/>
		</g>
	</g>
	<g>
		<path fill="#FFFFFF" d="M642.127,175.57c1.64-0.264,3.185-0.721,4.791-0.146C645.195,176.498,643.623,176.615,642.127,175.57
			 M661.78,183.619c0.013-0.129,0.045-0.254,0.065-0.383v-0.695c-0.065-1.404-0.556-2.711-0.943-4.039
			c-0.07-0.242-0.296-0.545-0.514-0.619c-0.703-0.232-1.824,0.6-1.813,1.338c0.008,0.348,0.13,0.713,0.276,1.037
			c0.843,1.859,0.916,3.746,0.235,5.662c-1.383,3.885-4.04,6.619-7.749,8.303c-4.025,1.826-8.117,1.889-12.13-0.045
			c-3.225-1.553-5.203-5.371-4.768-8.891c0.239-1.947,1.119-3.605,2.294-5.125c0.823-1.064,1.676-2.113,2.815-2.873
			c0.891-0.594,1.824-0.678,2.795-0.186c0.127,0.063,0.266,0.129,0.405,0.141c1.093,0.092,2.188,0.238,3.279,0.236
			c1.181-0.002,2.255-0.479,3.28-1.031c0.346-0.184,0.527-0.488,0.487-0.896c-0.035-0.389-0.293-0.59-0.624-0.699
			c-0.88-0.285-1.753-0.598-2.649-0.82c-1.645-0.408-3.305-0.252-4.964-0.055c-1.641,0.197-3.014-0.219-3.875-1.766
			c-0.659-1.184-1.16-2.414-1.36-3.77c-0.629-4.248,2.828-7.621,7.062-6.902c1.892,0.322,3.457,1.271,4.938,2.406
			c0.46,0.354,0.753,0.385,1.056,0.043c0.358-0.402,0.323-0.791-0.108-1.166c-0.284-0.248-0.58-0.48-0.858-0.732
			c-1.027-0.932-2.153-1.738-3.457-2.205c-1.15-0.414-2.357-0.668-3.539-0.99h-1.739c-0.45,0.105-0.907,0.182-1.348,0.318
			c-2.591,0.803-4.379,3.057-4.563,5.76c-0.235,3.479,1.03,6.395,3.379,8.898c0.237,0.252,0.484,0.5,0.688,0.777
			c0.285,0.391,0.253,0.666-0.103,0.996c-0.221,0.205-0.478,0.375-0.728,0.543c-2.624,1.768-4.739,3.984-6.056,6.895
			c-1.234,2.734-1.562,5.531-0.399,8.377c1.062,2.596,3.039,4.287,5.544,5.416c1.528,0.691,3.14,1.082,4.811,1.238
			c0.142,0.014,0.283,0.049,0.425,0.074h2.868c1.056-0.174,2.126-0.283,3.161-0.533c4.713-1.141,8.735-3.418,11.701-7.336
			C660.56,188.34,661.564,186.133,661.78,183.619 M672.023,178.455c0,14.482-11.781,26.262-26.261,26.262
			c-14.48,0-26.262-11.779-26.262-26.262c0-14.479,11.781-26.261,26.262-26.261C660.242,152.194,672.023,163.976,672.023,178.455
			 M674.559,178.455c0-15.877-12.917-28.796-28.796-28.796s-28.798,12.919-28.798,28.796c0,15.881,12.919,28.797,28.798,28.797
			S674.559,194.336,674.559,178.455"/>
		<path fill="#FFFFFF" d="M540.611,181.154l0.488-3.125c-0.977-0.307-1.992-0.543-3.042-0.707c-1.05-0.162-2.336-0.244-3.856-0.244
			c-2.5,0-4.466,0.785-5.896,2.35c-1.432,1.568-2.392,3.918-2.882,7.051c-0.307,1.957-0.461,3.533-0.461,4.727
			c0,2.211,0.402,3.818,1.209,4.822c0.808,1.008,2.143,1.508,4.007,1.508c0.762,0,1.698-0.166,2.813-0.5
			c1.113-0.338,1.96-0.678,2.538-1.021l0.327,1.359h3.043l1.792-11.438c-0.833-0.037-1.819-0.055-2.961-0.055
			c-1.195,0-2.218,0.037-3.068,0.109c-0.854,0.072-1.342,0.117-1.468,0.135l-0.516,3.178h3.612l-0.626,3.941
			c-0.452,0.125-1.09,0.252-1.914,0.381c-0.824,0.125-1.545,0.189-2.159,0.189c-0.888,0-1.536-0.244-1.942-0.734
			c-0.408-0.49-0.611-1.223-0.611-2.201c0-0.867,0.109-2.037,0.325-3.504c0.272-1.701,0.599-3.023,0.979-3.967
			c0.38-0.941,0.905-1.629,1.575-2.064s1.584-0.65,2.745-0.65C536.979,180.693,538.964,180.845,540.611,181.154 M553,186.804
			l0.624-4.021c-0.363-0.107-0.852-0.162-1.466-0.162c-0.779,0-1.491,0.182-2.135,0.543c-0.642,0.363-1.262,0.861-1.859,1.494
			l-0.163-1.875h-3.586l-2.311,14.59h4.05l1.494-9.455c0.451-0.344,0.99-0.625,1.615-0.84c0.625-0.219,1.309-0.326,2.052-0.326
			C551.749,186.752,552.311,186.767,553,186.804 M566.881,197.373l2.283-14.59h-4.021l-1.575,9.943
			c-0.543,0.398-1.073,0.697-1.589,0.898c-0.518,0.197-1.083,0.297-1.699,0.297c-1.141,0-1.71-0.488-1.71-1.467
			c0-0.145,0.017-0.344,0.054-0.598l1.412-9.074h-4.02l-1.521,9.563c-0.092,0.58-0.136,1.168-0.136,1.766
			c0,1.088,0.294,1.93,0.883,2.527c0.587,0.598,1.498,0.896,2.729,0.896c1.067,0,1.974-0.131,2.715-0.395
			c0.744-0.26,1.541-0.682,2.392-1.264l0.219,1.496H566.881z M580.438,188.515c0,0.199-0.046,0.689-0.136,1.467
			c-0.254,1.467-0.643,2.523-1.167,3.166c-0.527,0.643-1.279,0.963-2.256,0.963c-0.472,0-0.87-0.025-1.196-0.08
			c-0.325-0.055-0.68-0.154-1.059-0.301l1.249-7.85l2.608-0.027c0.688,0,1.186,0.217,1.495,0.652
			C580.283,186.939,580.438,187.609,580.438,188.515 M584.133,190.744c0.181-1.123,0.271-2.092,0.271-2.908
			c0-1.773-0.375-3.086-1.127-3.938c-0.753-0.852-1.979-1.277-3.681-1.277c-1.25,0-2.441,0.063-3.572,0.189
			c-1.134,0.129-2.387,0.309-3.763,0.543l-3.233,20.459h4.02l1.089-6.846c0.741,0.379,1.811,0.568,3.205,0.568
			c1.811,0,3.305-0.566,4.482-1.699C582.999,194.705,583.77,193.008,584.133,190.744 M596.248,188.515
			c0,0.199-0.045,0.689-0.136,1.467c-0.255,1.467-0.643,2.523-1.168,3.166c-0.526,0.643-1.276,0.963-2.256,0.963
			c-0.472,0-0.867-0.025-1.194-0.08c-0.326-0.055-0.68-0.154-1.06-0.301l1.25-7.85l2.607-0.027c0.689,0,1.187,0.217,1.495,0.652
			C596.094,186.939,596.248,187.609,596.248,188.515 M599.942,190.744c0.181-1.123,0.272-2.092,0.272-2.908
			c0-1.773-0.375-3.086-1.128-3.938c-0.752-0.852-1.978-1.277-3.682-1.277c-1.249,0-2.44,0.063-3.571,0.189
			c-1.132,0.129-2.387,0.309-3.763,0.543l-3.233,20.459h4.021l1.086-6.846c0.742,0.379,1.812,0.568,3.206,0.568
			c1.812,0,3.305-0.566,4.482-1.699C598.811,194.705,599.582,193.008,599.942,190.744 M612.032,187.756
			c0,0.453-0.082,1.295-0.245,2.525c-0.182,1.123-0.398,1.965-0.652,2.525c-0.253,0.563-0.589,0.951-1.004,1.17
			c-0.417,0.219-0.987,0.326-1.712,0.326c-0.742,0-1.291-0.146-1.644-0.436c-0.354-0.289-0.53-0.824-0.53-1.602
			c0-0.543,0.055-1.205,0.163-1.984c0.181-1.25,0.398-2.189,0.652-2.824s0.588-1.074,1.006-1.318
			c0.416-0.244,0.995-0.365,1.738-0.365c0.814,0,1.389,0.148,1.725,0.447C611.864,186.519,612.032,187.031,612.032,187.756
			 M616.054,187.945c0-1.268-0.163-2.281-0.489-3.043c-0.326-0.76-0.902-1.33-1.726-1.711c-0.824-0.381-1.996-0.57-3.519-0.57
			c-1.667,0-3.006,0.189-4.021,0.57s-1.83,1.078-2.444,2.092c-0.617,1.014-1.078,2.48-1.388,4.4
			c-0.144,0.924-0.216,1.85-0.216,2.771c0,3.389,1.91,5.08,5.731,5.08c1.649,0,2.984-0.189,4.009-0.568
			c1.022-0.383,1.847-1.053,2.471-2.014c0.625-0.959,1.073-2.318,1.345-4.074C615.971,189.81,616.054,188.834,616.054,187.945"/>
		<path fill="#FFFFFF" d="M606.234,216.359c0,1.271,0.979,1.41,1.594,1.385c0,0,2.405-0.09,2.94-0.162v-1.08h-2.629
			c-0.274,0-0.581,0.01-0.585-0.49v-1.078l2.786-0.088v-1.086l-2.786-0.098v-1.076c0-0.256,0-0.527,0.49-0.527h2.724v-1.092
			c-0.607-0.084-3.034-0.15-3.034-0.15c-0.652-0.014-1.5,0.236-1.5,1.432V216.359z M594.494,214.246
			c0,2.188,0.603,3.508,2.347,3.525c0.987,0.014,1.785-0.07,2.403-0.26v-1.033c0,0-1.098,0.076-2.086,0.076
			c-1.09,0-1.345-0.744-1.345-2.291c0-2.086,0.373-2.307,1.338-2.307c0.924,0,2.083,0.129,2.093,0.129v-1.033
			c-0.743-0.219-1.436-0.313-2.403-0.313C594.966,210.74,594.494,212.041,594.494,214.246 M582.079,217.715h1.327v-4.406
			l2.746,4.406h1.32v-6.898h-1.32v4.455l-2.737-4.455h-1.336V217.715z M571.355,215.017l0.828-2.463l0.777,2.463H571.355z
			 M569.098,217.715h1.417l0.498-1.527h2.261l0.489,1.527h1.403l-2.24-6.898h-1.5L569.098,217.715z M560.835,217.715h1.319v-6.898
			h-1.319V217.715z M549.55,216.369c0,1.066,0.685,1.346,1.438,1.346h2.831V216.5h-2.364c-0.274,0-0.585,0.008-0.585-0.49v-5.193
			h-1.319V216.369z M538.263,216.369c0,1.066,0.685,1.346,1.438,1.346h2.832V216.5h-2.365c-0.273,0-0.585,0.008-0.585-0.49v-5.193
			h-1.319V216.369z M527.542,215.017l0.828-2.463l0.775,2.463H527.542z M525.284,217.715h1.416l0.499-1.527h2.259l0.491,1.527h1.403
			l-2.24-6.898h-1.501L525.284,217.715z"/>
	</g>
	<line fill="none" stroke="#FFFFFF" stroke-miterlimit="10" x1="487.941" y1="149.659" x2="487.941" y2="217.773"/>
</g>
</svg>
