<?xml version="1.0" encoding="utf-8"?>
<!-- Generator: Adobe Illustrator 16.0.0, SVG Export Plug-In . SVG Version: 6.00 Build 0)  -->
<!DOCTYPE svg PUBLIC "-//W3C//DTD SVG 1.1//EN" "http://www.w3.org/Graphics/SVG/1.1/DTD/svg11.dtd">
<svg version="1.1" id="Livello_1" xmlns="http://www.w3.org/2000/svg" xmlns:xlink="http://www.w3.org/1999/xlink" x="0px" y="0px"
	 width="411.937px" height="57.021px" viewBox="0 0 411.937 57.021" enable-background="new 0 0 411.937 57.021"
	 xml:space="preserve">
<g>
	<path fill="#1D70B7" d="M111.243,28.383c-1.406,2.015-3.08,3.032-4.976,3.032c-0.073,0-0.145-0.002-0.217-0.003
		c-1.63-0.066-3.115-0.865-4.424-1.57c-2.574-1.388-3.376-1.7-4.667,0.269l-2.771-1.818c1.311-1.997,2.93-2.963,4.813-2.879
		c1.518,0.071,2.881,0.803,4.195,1.511c1.043,0.563,2.12,1.143,2.986,1.179c0.549,0.022,1.313-0.144,2.343-1.616L111.243,28.383z"/>
	<path fill="#1D70B7" d="M396.939,28.383c-1.406,2.015-3.08,3.032-4.977,3.032c-0.072,0-0.143-0.002-0.215-0.003
		c-1.631-0.066-3.115-0.865-4.424-1.57c-2.576-1.388-3.377-1.7-4.668,0.269l-2.77-1.818c1.311-1.997,2.93-2.963,4.813-2.879
		c1.518,0.071,2.879,0.803,4.195,1.511c1.043,0.563,2.119,1.143,2.986,1.179c0.547,0.022,1.313-0.144,2.342-1.616L396.939,28.383z"
		/>
	<path fill="#00A099" d="M408.886,0.027H82.24h-3.047v3.049v11.188c1.071,0.27,2.098,0.658,3.047,1.173V3.076h326.646v50.672H96.354
		c-0.267,0.298-0.546,0.589-0.846,0.865l-0.074,0.068l-0.078,0.065l-1.203,0.993l-0.121,0.101L93.9,55.93
		c-0.445,0.308-0.902,0.589-1.363,0.868h316.349h3.051v-3.05V3.076V0.027H408.886z"/>
</g>
<g>
	<defs>
		<path id="SVGID_1_" d="M34.808,7.542c-1.543,2.465-2.388,5.305-2.438,8.215c0,0.029,0.038,1.302,0.038,1.302
			c0.113,1.811,0.512,3.543,1.186,5.157c0.238,0.572,0.53,1.155,0.891,1.782c1.271,2.836,1.916,5.853,1.916,8.968
			c0,3.229-0.69,6.348-2.053,9.268c-0.34,0.73-0.716,1.436-1.119,2.101c-1.597-2.708-2.603-5.742-2.925-8.837v-8.494
			c0-5.24-4.263-9.502-9.504-9.502c-5.24,0-9.505,4.263-9.505,9.505c0,4.312,2.917,8.089,7.093,9.184
			c0.811,0.212,1.622,0.319,2.412,0.319c0.489,0,0.999-0.044,1.56-0.138l0.577-0.096v-4.351v-0.922l-0.885,0.259
			c-0.413,0.121-0.833,0.183-1.252,0.183c-0.67,0-1.322-0.15-1.934-0.448c-1.546-0.751-2.506-2.281-2.506-3.99
			c0-2.449,1.992-4.441,4.44-4.441c2.447,0,4.439,1.991,4.44,4.439l-0.038,7.766l0.023,0.827c0.164,2.34,0.677,4.628,1.522,6.802
			c0.777,1.996,1.825,3.873,3.118,5.585c-3.268,2.688-7.362,4.16-11.602,4.16c-3.717,0-7.294-1.113-10.353-3.218l-0.647-0.598
			c-1.711-1.582-1.817-4.262-0.236-5.974c0.798-0.864,1.93-1.358,3.107-1.358c1.065,0,2.084,0.398,2.867,1.123
			c1.196,1.104,1.645,2.764,1.172,4.329l-0.125,0.414l0.317,0.294l2.75,2.54l0.657,0.607l0.421-0.79
			c1.952-3.664,1.188-8.188-1.858-11.002c-1.693-1.566-3.895-2.428-6.2-2.428c-2.543-0.001-4.991,1.07-6.716,2.937
			C0,42.723,0.228,48.516,3.928,51.936l0.032,0.029h0.001l1.17,0.965c3.866,2.68,8.199,4.092,12.571,4.092
			c0.193,0,0.387-0.003,0.581-0.008c9.843-0.282,14.737-4.948,19.054-9.067c3.393-3.234,6.323-6.03,11.085-6.39
			c0,0,0.168-0.031,0.202-0.04c4.913,0.404,8.489,3.621,12.272,7.028c4.314,3.881,8.774,7.895,15.675,8.35
			c0.657,0.062,1.384,0.12,2.128,0.12c4.73,0,9.256-1.411,13.131-4.085l1.203-0.994c3.699-3.421,3.929-9.213,0.509-12.915
			c-1.724-1.866-4.172-2.937-6.715-2.937c-2.306,0-4.507,0.861-6.2,2.428c-3.046,2.813-3.811,7.338-1.857,11.002l0.42,0.79
			l3.725-3.441l-0.125-0.413c-0.475-1.566-0.023-3.226,1.172-4.33c0.783-0.725,1.803-1.123,2.867-1.123
			c1.176,0,2.309,0.494,3.107,1.358c1.576,1.708,1.475,4.379-0.225,5.962l-0.013,0.013l-0.63,0.581l-0.02,0.017
			c-3.058,2.104-6.634,3.217-10.35,3.217c-4.289,0-8.421-1.505-11.707-4.249c1.263-1.688,2.288-3.535,3.051-5.496
			c0.848-2.173,1.357-4.462,1.523-6.802l-0.016-0.739v-7.854c0-2.447,1.992-4.438,4.439-4.438s4.439,1.992,4.439,4.441
			c0,1.709-0.959,3.239-2.506,3.99c-0.613,0.298-1.264,0.448-1.934,0.448c-0.419,0-0.84-0.062-1.253-0.183l-0.884-0.259v4.687v0.586
			l0.578,0.096c0.56,0.094,1.07,0.138,1.559,0.138c0.79,0,1.601-0.107,2.412-0.319c4.176-1.095,7.093-4.872,7.093-9.184
			c0-5.242-4.265-9.505-9.505-9.505c-5.241,0-9.506,4.262-9.506,9.502v8.494c-0.324,3.138-1.307,6.105-2.924,8.837
			c-0.405-0.668-0.781-1.375-1.119-2.101c-1.362-2.918-2.053-6.037-2.053-9.268c0-3.116,0.645-6.132,1.916-8.968
			c0.362-0.634,0.654-1.216,0.891-1.782c0.712-1.703,1.115-3.539,1.201-5.458c0.004-0.078,0.035-0.558,0.035-0.72
			c0-2.998-0.848-5.937-2.451-8.496C59.021,2.819,53.941,0,48.394,0C42.848,0,37.768,2.819,34.808,7.542"/>
	</defs>
	<clipPath id="SVGID_2_">
		<use xlink:href="#SVGID_1_"  overflow="visible"/>
	</clipPath>
	
		<linearGradient id="SVGID_3_" gradientUnits="userSpaceOnUse" x1="-214.0181" y1="326.4336" x2="-213.0181" y2="326.4336" gradientTransform="matrix(94.9677 0 0 -94.9677 20325.7422 31029.2422)">
		<stop  offset="0" style="stop-color:#F8B133"/>
		<stop  offset="1" style="stop-color:#E84E1B"/>
	</linearGradient>
	<rect clip-path="url(#SVGID_2_)" fill="url(#SVGID_3_)" width="96.962" height="57.021"/>
</g>
<g>
	<path fill="#1D1D1B" d="M44.408,27.577c0,0.83-0.673,1.503-1.503,1.503s-1.502-0.673-1.502-1.503s0.672-1.503,1.502-1.503
		S44.408,26.747,44.408,27.577"/>
	<path fill="#1D1D1B" d="M55.559,27.577c0,0.83-0.672,1.503-1.502,1.503s-1.503-0.673-1.503-1.503s0.673-1.503,1.503-1.503
		S55.559,26.747,55.559,27.577"/>
	<polygon fill="#00A099" points="139.962,18.841 139.962,39.772 137.275,39.772 137.275,25.327 129.497,33.106 121.719,25.327 
		121.719,39.772 119.031,39.772 119.031,18.841 129.497,29.306 	"/>
	<polygon fill="#00A099" points="148.337,21.527 148.337,27.964 155.05,27.964 155.05,30.648 148.337,30.648 148.337,37.085 
		157.217,37.085 157.217,39.771 145.65,39.771 145.65,18.841 157.217,18.841 157.217,21.527 	"/>
	<path fill="#00A099" d="M177.398,29.284c0,2.802-1.091,5.436-3.072,7.415c-1.98,1.981-4.614,3.072-7.416,3.072h-5.199V18.798h5.199
		c2.802,0,5.436,1.091,7.416,3.071C176.308,23.85,177.398,26.482,177.398,29.284 M174.712,29.284c0-4.302-3.5-7.801-7.802-7.801
		h-2.512v15.602h2.512C171.212,37.085,174.712,33.586,174.712,29.284"/>
	<rect x="180.702" y="18.841" fill="#00A099" width="2.688" height="20.931"/>
	<polygon fill="#00A099" points="200.581,18.841 200.581,21.528 195.275,21.528 195.275,39.772 192.589,39.772 192.589,21.528 
		187.282,21.528 187.282,18.841 	"/>
	<polygon fill="#00A099" points="207.166,21.527 207.166,27.964 213.878,27.964 213.878,30.648 207.166,30.648 207.166,37.085 
		216.046,37.085 216.046,39.771 204.479,39.771 204.479,18.841 216.046,18.841 216.046,21.527 	"/>
	<path fill="#00A099" d="M229.574,30.491l4.627,9.259h-3.002l-4.563-9.121h-4.008v9.143h-2.688V18.841h8.367
		c3.256,0,5.893,2.639,5.893,5.893C234.201,27.555,232.22,29.913,229.574,30.491 M228.308,27.94c1.768,0,3.207-1.438,3.207-3.207
		c0-1.768-1.439-3.206-3.207-3.206h-5.68v6.413H228.308z"/>
	<path fill="#00A099" d="M247.728,30.491l4.629,9.259h-3.004l-4.561-9.121h-4.01v9.143h-2.686V18.841h8.367
		c3.254,0,5.893,2.639,5.893,5.893C252.357,27.555,250.375,29.913,247.728,30.491 M246.464,27.94c1.768,0,3.205-1.438,3.205-3.207
		c0-1.768-1.438-3.206-3.205-3.206h-5.682v6.413H246.464z"/>
	<path fill="#00A099" d="M272.082,39.771h-2.914l-2.199-5.222h-7.398l-2.199,5.222h-2.914l8.813-20.93L272.082,39.771z
		 M265.837,31.862l-2.568-6.099l-2.568,6.099H265.837z"/>
	<polygon fill="#00A099" points="291.923,18.841 291.923,39.772 277.48,25.327 277.48,39.772 274.792,39.772 274.792,18.841 
		289.238,33.284 289.238,18.841 	"/>
	<polygon fill="#00A099" points="299.701,21.527 299.701,27.964 306.414,27.964 306.414,30.648 299.701,30.648 299.701,37.085 
		308.582,37.085 308.582,39.771 297.015,39.771 297.015,18.841 308.582,18.841 308.582,21.527 	"/>
	<path fill="#00A099" d="M344.33,39.852h-2.914l-2.195-5.215h-7.393l-2.195,5.215h-2.912l8.803-20.909L344.33,39.852z
		 M338.089,31.951l-2.566-6.093l-2.564,6.093H338.089z"/>
</g>
<g>
	<defs>
		<path id="SVGID_4_" d="M353.912,16.331c-0.146,0.012-0.271,0.022-0.373,0.035c-0.1,0.014-0.221,0.036-0.363,0.069
			c-0.469,0.16-0.752,0.674-1.08,0.918c-0.104,0.072-0.188,0.093-0.256,0.062c-0.156-0.033-0.299-0.035-0.426-0.004
			c-0.127,0.029-0.264,0.051-0.41,0.062c-0.293,0.024-0.502,0.146-0.629,0.365c-0.07,0.088-0.137,0.174-0.207,0.262
			c-0.068,0.087-0.123,0.171-0.164,0.252c-0.045,0.06-0.092,0.117-0.137,0.175c-0.047,0.06-0.111,0.098-0.197,0.118
			c-0.156,0.085-0.283,0.181-0.379,0.286c-0.094,0.105-0.172,0.213-0.234,0.323c-0.15,0.249-0.285,0.494-0.406,0.735
			c-0.121,0.243-0.26,0.478-0.414,0.703c-0.168,0.302-0.326,0.605-0.477,0.913c-0.15,0.31-0.309,0.614-0.475,0.913
			c-0.115,0.265-0.234,0.519-0.355,0.76c-0.123,0.242-0.227,0.492-0.314,0.75c-0.215,0.597-0.42,1.18-0.611,1.745
			c-0.193,0.568-0.355,1.138-0.484,1.714c-0.066,0.23-0.123,0.462-0.17,0.698c-0.049,0.237-0.105,0.468-0.17,0.696
			c-0.066,0.349-0.096,0.692-0.09,1.035c0.008,0.341,0.008,0.678-0.002,1.012c-0.016,0.311-0.025,0.616-0.027,0.913
			c-0.006,0.298,0.002,0.598,0.014,0.901c0.023,0.351,0.047,0.693,0.068,1.031c0.021,0.339,0.045,0.684,0.066,1.031
			c0.037,0.276,0.086,0.542,0.148,0.8c0.061,0.258,0.148,0.503,0.264,0.736c0.057,0.104,0.102,0.2,0.137,0.287
			c0.037,0.085,0.053,0.188,0.051,0.308c0.016,0.186,0.055,0.377,0.115,0.575c0.064,0.199,0.102,0.39,0.115,0.576
			c0.07,0.291,0.174,0.539,0.313,0.742c0.043,0.179,0.113,0.28,0.209,0.305c0.105,0.069,0.182,0.14,0.229,0.213
			c0.047,0.071,0.098,0.16,0.154,0.264c0.104,0.188,0.201,0.373,0.289,0.554c0.088,0.179,0.209,0.345,0.365,0.498
			c0.09,0.12,0.141,0.215,0.156,0.281c0.088,0.24,0.229,0.454,0.422,0.646c0.086,0.097,0.197,0.165,0.342,0.203
			c0.143,0.036,0.293,0.07,0.449,0.104c0.131-0.078,0.232-0.091,0.307-0.037c0.072,0.054,0.145,0.107,0.217,0.161
			c0.162,0.174,0.404,0.258,0.73,0.25c0.154,0.012,0.311,0.016,0.475,0.011c0.162-0.003,0.324,0.012,0.48,0.046
			c0.063,0.01,0.164-0.004,0.305-0.037c0.057-0.015,0.107-0.021,0.152-0.02s0.096-0.006,0.152-0.019
			c0.236-0.009,0.488-0.022,0.752-0.038c0.266-0.017,0.52-0.076,0.764-0.184c0.328-0.125,0.693-0.254,1.094-0.386
			c0.402-0.132,0.76-0.294,1.07-0.487c0.369-0.207,0.676-0.451,0.922-0.735c0.246-0.283,0.547-0.552,0.906-0.803
			c0.102-0.072,0.195-0.146,0.281-0.226c0.084-0.081,0.176-0.168,0.273-0.262c0.068-0.089,0.1-0.144,0.094-0.164
			c0.047-0.061,0.08-0.114,0.096-0.167c0.018-0.05,0.047-0.106,0.096-0.164c0.098-0.093,0.184-0.198,0.26-0.312
			c0.078-0.112,0.133-0.232,0.16-0.356c0.041-0.082,0.098-0.166,0.166-0.254c0.068-0.086,0.117-0.193,0.146-0.319l0.035-0.043
			l0.033-0.045c0.047-0.057,0.092-0.115,0.139-0.173c0.045-0.06,0.031-0.116-0.041-0.169c0.045-0.059,0.07-0.106,0.078-0.144
			c0.006-0.036,0.031-0.084,0.078-0.143c0.148-0.13,0.227-0.232,0.238-0.306c0.023-0.096,0.086-0.166,0.148-0.238
			c-0.014-0.072-0.045-0.138-0.063-0.212c0.348-0.716,0.525-1.443,0.355-2.208c-0.057-0.264-0.246-0.285-0.441-0.192
			c-0.301-0.291-1.002,0.376-0.885,0.77c0.006,0.018,0,0.034,0.004,0.052c-0.107,0.212-0.168,0.432-0.234,0.649
			c-0.313,0.397-0.582,0.771-0.807,1.112c-0.229,0.352-0.482,0.695-0.76,1.033c-0.279,0.34-0.592,0.652-0.941,0.936
			c-0.35,0.286-0.779,0.549-1.291,0.789c-0.242,0.106-0.484,0.211-0.729,0.316s-0.514,0.17-0.805,0.194
			c-0.143,0.033-0.277,0.03-0.406-0.011c-0.254-0.059-0.469-0.148-0.646-0.271c-0.18-0.123-0.381-0.216-0.605-0.281l-0.117-0.115
			c-0.049-0.082-0.1-0.165-0.148-0.249c-0.051-0.082-0.115-0.172-0.199-0.271c-0.09-0.121-0.166-0.25-0.229-0.389
			c-0.063-0.14-0.143-0.279-0.236-0.424c-0.01-0.045-0.027-0.087-0.053-0.129c-0.025-0.041-0.043-0.085-0.053-0.129
			c-0.023-0.468-0.139-0.891-0.348-1.267l-0.041-0.168c-0.016-0.186-0.027-0.361-0.035-0.524c-0.01-0.163-0.033-0.323-0.07-0.479
			c-0.029-0.113-0.059-0.176-0.092-0.192c-0.078-0.075-0.119-0.154-0.123-0.236s-0.033-0.163-0.082-0.247
			c-0.055-0.105-0.07-0.201-0.047-0.29s0.008-0.186-0.047-0.29c-0.045-0.062-0.068-0.126-0.07-0.196
			c-0.002-0.072-0.01-0.142-0.027-0.207c0.018-0.051,0.016-0.123-0.006-0.213c-0.002-0.258-0.008-0.53-0.014-0.813
			c-0.01-0.281-0.014-0.553-0.018-0.813c0.021-0.407,0.066-0.814,0.135-1.222c0.066-0.405,0.125-0.816,0.174-1.23
			c0.043-0.2,0.092-0.401,0.148-0.604c0.055-0.201,0.102-0.415,0.139-0.637c-0.033-0.134-0.029-0.241,0.012-0.322
			c0.057-0.133,0.107-0.269,0.148-0.407c0.041-0.142,0.09-0.277,0.148-0.41c0.229-0.787,0.523-1.615,0.885-2.484
			c0.072-0.183,0.143-0.365,0.203-0.547c0.063-0.178,0.145-0.365,0.248-0.555c0.1-0.214,0.186-0.412,0.26-0.597
			c0.076-0.183,0.166-0.369,0.27-0.562c0.086-0.138,0.17-0.289,0.252-0.45c0.08-0.161,0.164-0.311,0.25-0.451
			c0.045-0.057,0.076-0.118,0.09-0.181c0.014-0.063,0.045-0.123,0.092-0.181c0.193-0.188,0.328-0.376,0.404-0.56
			c0.039-0.081,0.096-0.159,0.166-0.234c0.072-0.077,0.111-0.162,0.117-0.26c0.037-0.222,0.154-0.416,0.354-0.582
			c0.127-0.101,0.193-0.188,0.207-0.263c0.131-0.196,0.299-0.307,0.502-0.333c0.141-0.012,0.254,0.048,0.357,0.108
			c0.129,0.075,0.238,0.152,0.359,0.075c0.391-0.252,1.285,0.012,1.416,0.193c0.135,0.181,1.402,0.406,1.455,0.629
			c0.035,0.396,0.082,0.78,0.143,1.156s0.076,0.758,0.051,1.142c-0.035,0.483-0.064,0.951-0.09,1.406
			c-0.025,0.457-0.148,0.913-0.367,1.367c-0.047,0.059-0.068,0.124-0.066,0.194c0.002,0.069-0.016,0.146-0.057,0.227
			c-0.025,0.147-0.029,0.254-0.012,0.322c-0.014,0.192,0.078,0.265,0.275,0.217c0.113-0.026,0.221-0.045,0.322-0.059
			c0.102-0.012,0.207-0.031,0.322-0.059c0.225-0.054,0.387-0.13,0.484-0.224l0.582-0.743c0.045-0.058,0.072-0.099,0.082-0.127
			c0.01-0.024,0.035-0.067,0.084-0.125c0.121-0.102,0.213-0.223,0.27-0.367c0.055-0.143,0.094-0.289,0.119-0.438
			c0.041-0.198,0.074-0.402,0.1-0.609s0.045-0.407,0.059-0.599c0.113-0.645,0.057-1.258-0.172-1.842
			c-0.066-0.148-0.131-0.295-0.193-0.434c-0.064-0.137-0.113-0.286-0.152-0.443l-0.092-0.385c-0.029-0.124-0.363-0.425-0.424-0.553
			c-0.088-0.122-0.137-0.204-0.148-0.249c-0.064-0.27-0.203-0.531-0.414-0.789c-0.199-0.212-1.559-0.885-1.822-0.988
			c-0.057,0.015-0.119,0.005-0.188-0.026c-0.307-0.044-0.563-0.112-0.764-0.206c-0.053-0.027-0.123-0.039-0.205-0.039
			C355.275,15.834,354.287,16.281,353.912,16.331"/>
	</defs>
	<clipPath id="SVGID_5_">
		<use xlink:href="#SVGID_4_"  overflow="visible"/>
	</clipPath>
	
		<linearGradient id="SVGID_6_" gradientUnits="userSpaceOnUse" x1="-214.1362" y1="333.8301" x2="-213.1362" y2="333.8301" gradientTransform="matrix(15.3559 0 0 -15.3559 3633.3022 5155.3389)">
		<stop  offset="0" style="stop-color:#F8B133"/>
		<stop  offset="1" style="stop-color:#E84E1B"/>
	</linearGradient>
	<rect x="345.054" y="15.834" clip-path="url(#SVGID_5_)" fill="url(#SVGID_6_)" width="15.416" height="26.503"/>
</g>
<g>
	<defs>
		<path id="SVGID_7_" d="M368.343,11.128c-0.307,0.276-0.496,0.521-0.563,0.736c-0.104,0.246-0.207,0.469-0.311,0.668
			c-0.102,0.2-0.207,0.423-0.309,0.667c-0.342,0.706-0.617,1.421-0.822,2.141c-0.205,0.722-0.395,1.45-0.564,2.187
			c-0.141,0.521-0.258,1.052-0.361,1.588c-0.102,0.537-0.205,1.066-0.307,1.59c-0.139,0.552-0.25,1.096-0.336,1.634
			c-0.086,0.536-0.162,1.081-0.23,1.633c-0.035,0.339-0.078,0.667-0.129,0.989c-0.051,0.321-0.113,0.653-0.18,0.99
			c-0.07,0.43-0.154,0.844-0.258,1.242c-0.104,0.4-0.205,0.815-0.309,1.244c-0.068,0.337-0.129,0.667-0.18,0.988
			c-0.053,0.322-0.127,0.654-0.232,0.991c-0.102,0.338-0.205,0.683-0.307,1.036c-0.104,0.353-0.191,0.714-0.258,1.08
			c-0.104,0.34-0.18,0.66-0.23,0.968c-0.053,0.307-0.113,0.629-0.18,0.966l-0.928,4.143c-0.066,0.398-0.145,0.798-0.23,1.198
			c-0.084,0.397-0.162,0.812-0.232,1.242c-0.033,0.184-0.025,0.369,0.027,0.552c0.051,0.185,0.18,0.338,0.385,0.46
			c0.07,0.032,0.129,0.062,0.18,0.093c0.053,0.03,0.078,0.093,0.078,0.184h0.051c0.068-0.031,0.078-0.062,0.025-0.091
			c-0.051-0.032-0.041-0.063,0.027-0.093c0.068,0.061,0.086,0.106,0.049,0.139c-0.033,0.029-0.016,0.077,0.053,0.138v-0.23
			c0-0.184,0.084-0.321,0.258-0.414l0.051-0.046c0.207-0.185,0.377-0.169,0.514,0.046c0.035,0,0.07-0.016,0.104-0.046
			c0-0.032-0.008-0.062-0.025-0.093c-0.018-0.03-0.008-0.076,0.025-0.139c0.102-0.062,0.223-0.214,0.359-0.459
			c0.035,0.029,0.041,0.061,0.025,0.092s0.01,0.046,0.078,0.046c0.033,0.031,0.043,0.061,0.025,0.092
			c-0.018,0.032,0.008,0.046,0.076,0.046v-0.046c0.105-0.184,0.223-0.215,0.361-0.092c0.033,0.092,0.086,0.107,0.154,0.046
			c0.031-0.061,0.066-0.1,0.102-0.114c0.035-0.016,0.018-0.055-0.051-0.115l0.051-0.092c0.137,0,0.189-0.063,0.154-0.186
			c-0.033-0.03,0-0.045,0.104-0.045l0.051,0.045c-0.068-0.091-0.051-0.153,0.053-0.183c0.102-0.032,0.119-0.094,0.051-0.185
			c0-0.03,0.033-0.108,0.102-0.229c0.07-0.063,0.104-0.115,0.104-0.161s0.018-0.102,0.053-0.161
			c0.068-0.155,0.119-0.285,0.154-0.392c0.033-0.108,0.086-0.224,0.154-0.346c0.068-0.093,0.119-0.185,0.154-0.276
			c0.033-0.093,0.084-0.2,0.154-0.322c0.135-0.338,0.238-0.683,0.307-1.036c0.07-0.353,0.156-0.697,0.258-1.035
			c0.068-0.275,0.139-0.56,0.205-0.852c0.07-0.291,0.139-0.575,0.207-0.852c0.068-0.337,0.154-0.675,0.256-1.013
			c0.104-0.338,0.207-0.674,0.309-1.013c0.035-0.185,0.104-0.353,0.207-0.505c0.102-0.154,0.207-0.324,0.309-0.508l0.463,0.828
			c0.068,0.153,0.146,0.314,0.23,0.483c0.086,0.169,0.162,0.331,0.23,0.484c0.104,0.244,0.232,0.49,0.387,0.735
			c0.154,0.246,0.301,0.507,0.438,0.783c0.033,0.154,0.154,0.323,0.359,0.506c0.24,0.277,0.463,0.614,0.668,1.013
			c0.035,0.185,0.119,0.385,0.258,0.599c0.275,0.522,0.582,1.004,0.926,1.449c0.342,0.445,0.686,0.883,1.027,1.313
			c0,0.029,0.035,0.046,0.104,0.046c0.205,0.029,0.377,0.167,0.514,0.413c0.137,0.186,0.258,0.292,0.359,0.323
			c0.068,0,0.121,0.014,0.156,0.046c0.033,0.029,0.084,0.061,0.154,0.091c0.066-0.183,0.119-0.307,0.154-0.367h0.102
			c0.102,0.093,0.154,0.076,0.154-0.046c0-0.123-0.018-0.2-0.053-0.229c-0.068-0.032-0.068-0.078,0-0.14
			c0.07,0,0.105,0.017,0.105,0.047c0.068,0.061,0.127,0.093,0.18,0.093c0.051,0,0.092,0.029,0.127,0.092
			c0.035-0.092,0.061-0.178,0.078-0.253c0.018-0.078,0.059-0.147,0.129-0.207c0.068,0,0.127,0.021,0.18,0.068
			c0.051,0.046,0.111,0.069,0.18,0.069c0-0.154,0.018-0.262,0.051-0.323c0.035-0.029,0.061-0.022,0.078,0.024
			c0.016,0.046,0.061,0.052,0.127,0.023c0.07-0.217,0.086-0.386,0.053-0.509c-0.137-0.275-0.291-0.545-0.463-0.805
			s-0.342-0.515-0.514-0.76c-0.172-0.214-0.326-0.422-0.463-0.621c-0.139-0.199-0.275-0.422-0.412-0.667
			c-0.035-0.062-0.076-0.116-0.129-0.162c-0.049-0.045-0.076-0.115-0.076-0.206c-0.035-0.123-0.07-0.237-0.104-0.346
			c-0.035-0.107-0.068-0.223-0.102-0.345c-0.07-0.184-0.139-0.375-0.207-0.575c-0.07-0.2-0.172-0.392-0.307-0.576
			c-0.07-0.121-0.139-0.237-0.205-0.346c-0.07-0.107-0.139-0.222-0.207-0.345c-0.137-0.214-0.275-0.414-0.412-0.599
			c-0.137-0.184-0.275-0.353-0.41-0.506c-0.207-0.245-0.344-0.444-0.412-0.599c-0.139-0.338-0.275-0.652-0.412-0.942
			c-0.137-0.293-0.273-0.592-0.41-0.899c-0.172-0.396-0.326-0.797-0.465-1.196c-0.137-0.397-0.307-0.768-0.514-1.105
			c-0.07-0.06-0.035-0.122,0.104-0.183c0.273-0.186,0.539-0.368,0.799-0.554c0.256-0.183,0.486-0.398,0.693-0.644
			c0.135-0.154,0.273-0.292,0.41-0.414c0.137-0.123,0.291-0.23,0.463-0.323c0.137-0.061,0.248-0.122,0.334-0.183
			c0.086-0.063,0.18-0.123,0.283-0.186c0.377-0.276,0.736-0.559,1.08-0.852c0.342-0.291,0.701-0.605,1.08-0.943l1.387-1.243
			c0.514-0.429,0.943-0.827,1.287-1.197c0.205-0.213,0.402-0.414,0.592-0.598c0.188-0.185,0.385-0.368,0.59-0.552l1.543-1.244
			c0.273-0.214,0.541-0.421,0.797-0.621c0.258-0.198,0.523-0.391,0.799-0.574c0.375-0.246,0.719-0.507,1.027-0.782
			c0.309-0.277,0.598-0.601,0.873-0.969c-0.035-0.028-0.059-0.046-0.078-0.046c-0.016,0-0.041-0.015-0.074-0.045
			c0.068-0.152,0.152-0.245,0.256-0.276c0.033-0.029,0.051-0.062,0.051-0.092c-0.033-0.062-0.051-0.115-0.051-0.162
			c0-0.045-0.033-0.083-0.104-0.115c-0.068-0.029-0.152,0-0.256,0.093c0,0.063-0.02,0.092-0.051,0.092
			c-0.035,0-0.07,0.017-0.105,0.046c0-0.121,0.07-0.276,0.205-0.46c-0.135-0.061-0.223-0.093-0.254-0.093
			c-0.035,0-0.088,0.032-0.154,0.093l-0.154,0.138c-0.07-0.121-0.053-0.198,0.051-0.23v-0.091h-0.104
			c-0.102,0-0.172,0.046-0.205,0.138c-0.07,0.063-0.121,0.076-0.154,0.046c0-0.061,0.025-0.114,0.076-0.16
			c0.053-0.047,0.111-0.099,0.182-0.161c-0.07-0.062-0.104-0.077-0.104-0.047c0,0.031-0.018,0.047-0.053,0.047
			c0-0.093,0.053-0.186,0.156-0.277c0.273-0.183,0.443-0.353,0.512-0.507c-0.068-0.029-0.119-0.029-0.152,0
			c-0.275,0.185-0.549,0.361-0.824,0.531c-0.275,0.168-0.547,0.329-0.822,0.481c-0.273,0.155-0.539,0.31-0.797,0.461
			c-0.256,0.155-0.521,0.309-0.797,0.46c-0.445,0.247-0.857,0.491-1.234,0.736c-0.379,0.247-0.754,0.537-1.131,0.876
			c-0.377,0.307-0.738,0.613-1.08,0.919c-0.342,0.309-0.703,0.63-1.08,0.968l-2.469,2.209c-0.205,0.186-0.402,0.377-0.59,0.576
			s-0.385,0.375-0.592,0.529c-0.275,0.216-0.531,0.43-0.771,0.645c-0.24,0.214-0.498,0.413-0.771,0.6
			c-0.137,0.122-0.273,0.198-0.41,0.229c0.033-0.153,0.051-0.368,0.051-0.644c0-0.399,0.137-0.768,0.412-1.106
			c0.102-0.153,0.205-0.29,0.309-0.413c0.102-0.123,0.188-0.275,0.256-0.46c0.068-0.215,0.154-0.423,0.258-0.623
			c0.104-0.198,0.17-0.404,0.205-0.621c0.137-0.767,0.24-1.549,0.309-2.347c0.033-0.338,0.078-0.683,0.129-1.035
			c0.053-0.353,0.146-0.699,0.283-1.037c0.172-0.429,0.205-0.903,0.104-1.427c-0.07-0.183-0.121-0.375-0.154-0.575
			c-0.035-0.199-0.053-0.391-0.053-0.575c-0.102-0.614-0.43-0.981-0.977-1.104c-0.205-0.063-0.328-0.154-0.359-0.277l-0.207-0.185
			c-0.102-0.092-0.238-0.107-0.41-0.046c-0.035,0.032-0.053,0.032-0.053,0c0-0.03-0.033-0.046-0.102-0.046
			c0.068,0.062,0.086,0.124,0.051,0.184c-0.035,0.063-0.051,0.123-0.051,0.183c0,0.063-0.035,0.095-0.104,0.095
			c-0.104-0.031-0.119-0.076-0.051-0.139c0-0.153,0.018-0.244,0.051-0.276c0.033-0.03,0.018-0.075-0.051-0.139
			c-0.053-0.006-0.104-0.009-0.15-0.009C368.611,10.98,368.455,11.029,368.343,11.128"/>
	</defs>
	<clipPath id="SVGID_8_">
		<use xlink:href="#SVGID_7_"  overflow="visible"/>
	</clipPath>
	
		<linearGradient id="SVGID_9_" gradientUnits="userSpaceOnUse" x1="-214.0767" y1="331.0869" x2="-213.0762" y2="331.0869" gradientTransform="matrix(22.3362 0 0 -22.3362 5142.5522 7421.9238)">
		<stop  offset="0" style="stop-color:#F8B133"/>
		<stop  offset="1" style="stop-color:#E84E1B"/>
	</linearGradient>
	<rect x="360.855" y="10.98" clip-path="url(#SVGID_8_)" fill="url(#SVGID_9_)" width="22.35" height="31.449"/>
</g>
<g>
	<defs>
		<path id="SVGID_10_" d="M319.773,46.682c0.033,0.033,0.053,0.059,0.053,0.077c0,0.016,0.018,0.043,0.051,0.078
			c0.035,0.067,0.068,0.084,0.104,0.05c0.068-0.034,0.068-0.085,0-0.155c-0.045-0.045-0.092-0.067-0.137-0.067
			C319.82,46.664,319.796,46.67,319.773,46.682 M319.464,46.112h0.104c0.033,0,0.051-0.018,0.051-0.052l-0.051-0.052
			C319.498,46.009,319.464,46.044,319.464,46.112 M320.599,45.519c-0.033,0.018-0.033,0.06,0,0.129
			c0.07-0.035,0.105-0.121,0.105-0.259C320.669,45.459,320.634,45.502,320.599,45.519 M320.91,43.789
			c-0.104,0.311-0.189,0.619-0.258,0.93c0.172-0.138,0.301-0.293,0.387-0.465s0.164-0.344,0.234-0.518
			c-0.07,0-0.105,0.01-0.105,0.026s-0.033,0.026-0.102,0.026c0.068-0.173,0.137-0.318,0.207-0.44
			c0.068-0.12,0.137-0.248,0.207-0.386C321.203,43.204,321.013,43.479,320.91,43.789 M320.394,42.651
			c0,0.07,0.018,0.104,0.053,0.104c0-0.034,0.016-0.07,0.051-0.104l-0.051-0.051L320.394,42.651z M321.736,41.489
			c0,0.019-0.018,0.044-0.051,0.078c0,0.068-0.018,0.128-0.051,0.182c-0.035,0.05-0.07,0.111-0.105,0.181
			c-0.172,0.239-0.256,0.463-0.256,0.671c0.068,0.069,0.102,0.051,0.102-0.052c0.07-0.171,0.146-0.337,0.232-0.491
			s0.164-0.318,0.232-0.49c0.07-0.068,0.053-0.121-0.051-0.154C321.753,41.446,321.736,41.473,321.736,41.489 M321.22,40.431
			c0,0.034,0.016,0.051,0.053,0.051l0.051-0.051c0.033-0.034,0.018-0.053-0.051-0.053C321.236,40.378,321.22,40.396,321.22,40.431
			 M321.324,39.786c0,0.016-0.018,0.024-0.051,0.024c0.068,0.104,0.051,0.19-0.053,0.259c-0.104,0.069-0.139,0.154-0.104,0.259
			c0.033-0.069,0.086-0.096,0.156-0.078c0.068,0.017,0.084-0.009,0.051-0.077c0-0.068,0.033-0.206,0.104-0.413
			C321.357,39.76,321.324,39.768,321.324,39.786 M323.443,37.021c0.066-0.067,0.084-0.119,0.051-0.156
			C323.388,36.901,323.373,36.953,323.443,37.021 M318.171,14.293c0.047,0.123,0.111,0.235,0.191,0.339
			c-0.01-0.039-0.031-0.092-0.061-0.159c-0.064-0.137-0.104-0.207-0.121-0.207C318.175,14.266,318.171,14.273,318.171,14.293
			 M323.261,34.206c0.051-0.086,0.094-0.182,0.127-0.284c0.035,0.172-0.016,0.361-0.152,0.567
			C323.201,34.388,323.208,34.292,323.261,34.206 M326.128,27.31l0.051-0.051l0.053-0.051c0,0.068-0.02,0.102-0.053,0.102
			c0,0.035-0.01,0.053-0.025,0.053C326.134,27.362,326.128,27.345,326.128,27.31 M328.195,13.569
			c-0.139,0.139-0.26,0.284-0.363,0.439c-0.104,0.156-0.225,0.319-0.361,0.491c-0.172,0.206-0.318,0.432-0.439,0.672
			c-0.121,0.241-0.232,0.499-0.336,0.773c-0.172,0.448-0.344,0.888-0.516,1.317c-0.174,0.431-0.344,0.871-0.518,1.318
			c-0.102,0.274-0.197,0.566-0.283,0.877c-0.086,0.31-0.18,0.621-0.285,0.93c-0.137,0.345-0.273,0.681-0.412,1.008
			s-0.258,0.664-0.361,1.007c-0.311,1.034-0.672,2.067-1.084,3.1c-0.139,0.38-0.277,0.767-0.414,1.163
			c-0.137,0.396-0.258,0.782-0.361,1.162c-0.07,0.274-0.156,0.533-0.258,0.775c-0.105,0.241-0.207,0.498-0.311,0.774
			c0,0.138-0.053,0.207-0.156,0.207c-0.275,0.068-0.533,0.128-0.773,0.18c-0.242,0.051-0.5,0.113-0.775,0.181
			c-0.447,0.07-0.887,0.155-1.316,0.26c-0.432,0.102-0.873,0.189-1.318,0.258c-0.344,0.068-0.68,0.138-1.008,0.206
			s-0.645,0.138-0.955,0.208c-0.068,0-0.121,0.007-0.154,0.024c-0.035,0.017-0.086,0.01-0.154-0.024
			c0.068-0.312,0.137-0.621,0.207-0.932c0.066-0.31,0.137-0.603,0.207-0.878c0.102-0.517,0.213-1.023,0.334-1.523
			c0.121-0.499,0.25-0.99,0.387-1.473c0.07-0.379,0.156-0.757,0.258-1.137c0.105-0.379,0.191-0.757,0.26-1.137v-0.154
			c0.068-0.034,0.137-0.163,0.207-0.387c0.068-0.225,0.129-0.466,0.18-0.724c0.053-0.259,0.102-0.517,0.156-0.775
			c0.051-0.258,0.094-0.439,0.129-0.542c0.104-0.276,0.205-0.569,0.309-0.878c0.104-0.311,0.207-0.619,0.311-0.931
			c0.068-0.206,0.121-0.378,0.154-0.516c0.035-0.172,0.061-0.336,0.078-0.491s0.059-0.318,0.129-0.491
			c0.104-0.24,0.154-0.498,0.154-0.773c0.035-0.312,0.043-0.619,0.025-0.93s0.027-0.603,0.131-0.88c0-0.137-0.053-0.258-0.156-0.36
			c-0.152-0.095-0.277-0.206-0.377-0.333c0.02,0.072,0.008,0.097-0.035,0.074c-0.139-0.104-0.275-0.198-0.414-0.284
			c-0.137-0.085-0.309-0.129-0.516-0.129c-0.035,0-0.061-0.007-0.078-0.026c-0.018-0.018-0.043-0.025-0.078-0.025
			c-0.172-0.033-0.342,0-0.516,0.104c-0.758,0.448-1.309,1.102-1.652,1.962c-0.139,0.379-0.252,0.775-0.336,1.188
			c-0.086,0.412-0.182,0.811-0.285,1.188c-0.068,0.378-0.129,0.73-0.18,1.059c-0.053,0.326-0.129,0.68-0.232,1.058
			c-0.174,0.517-0.328,1.043-0.465,1.576c-0.139,0.534-0.293,1.077-0.465,1.627c-0.139,0.414-0.277,0.827-0.412,1.241
			c-0.139,0.411-0.26,0.843-0.363,1.291l-0.619,2.17c-0.139,0.551-0.26,1.093-0.361,1.625c-0.105,0.535-0.225,1.077-0.363,1.629
			c0,0.172-0.086,0.259-0.258,0.259c-0.242,0.068-0.482,0.127-0.723,0.18c-0.24,0.051-0.5,0.112-0.775,0.182
			c-0.207,0.033-0.422,0.076-0.645,0.128c-0.225,0.052-0.439,0.13-0.646,0.232c-0.172,0.07-0.344,0.163-0.518,0.284
			c-0.172,0.121-0.326,0.267-0.465,0.439c-0.137,0.205-0.285,0.404-0.438,0.594c-0.156,0.189-0.318,0.387-0.492,0.594
			c-0.068,0.173-0.111,0.319-0.129,0.439c-0.018,0.121-0.043,0.251-0.076,0.387c0,0.104,0.051,0.156,0.154,0.156
			c0.139,0,0.207,0.086,0.207,0.258c0.033,0.035,0.061,0.026,0.076-0.026c0.018-0.052,0.061-0.042,0.131,0.026
			c0.102,0.138,0.223,0.138,0.361,0c0.033-0.034,0.068-0.034,0.102,0c0.07,0.103,0.113,0.155,0.129,0.155h0.131
			c0.205-0.034,0.412-0.139,0.619-0.311c0.139-0.067,0.275-0.121,0.414-0.155c0.137-0.033,0.293-0.085,0.465-0.154
			c0.344-0.068,0.602-0.138,0.773-0.206c0.346-0.172,0.672-0.259,0.982-0.259v0.103c-0.174,0.689-0.328,1.378-0.465,2.067
			c-0.137,0.688-0.258,1.378-0.361,2.065c-0.068,0.379-0.129,0.768-0.182,1.161c-0.051,0.398-0.111,0.785-0.18,1.164
			c-0.104,0.516-0.156,1.016-0.156,1.497c-0.033,0.242-0.068,0.475-0.104,0.699c-0.035,0.222-0.035,0.473,0,0.748
			c0,0.379,0.088,0.672,0.26,0.877c0.104,0.172,0.223,0.318,0.361,0.439c0.137,0.12,0.258,0.268,0.361,0.439
			c0.104,0.171,0.207,0.188,0.311,0.053c0.068,0.068,0.084,0.118,0.051,0.154c-0.035,0.034-0.018,0.067,0.053,0.102
			c0.068-0.067,0.137-0.138,0.207-0.206c0.066-0.068,0.17-0.087,0.309-0.05c0.139,0,0.207-0.053,0.207-0.156
			c0-0.068,0.033-0.104,0.104-0.104c0.068-0.07,0.119-0.138,0.154-0.207c0.033-0.069,0.086-0.137,0.154-0.206
			c0.07-0.242,0.156-0.448,0.26-0.62c0.172-0.276,0.334-0.56,0.49-0.852c0.154-0.293,0.266-0.576,0.336-0.852
			c0.104-0.311,0.18-0.629,0.232-0.957c0.051-0.326,0.111-0.646,0.18-0.955c0.104-0.447,0.189-0.896,0.26-1.344
			c0.068-0.447,0.154-0.895,0.256-1.343c0.07-0.31,0.139-0.62,0.207-0.929c0.07-0.312,0.156-0.603,0.26-0.879
			c0.172-0.413,0.301-0.826,0.387-1.239s0.164-0.827,0.232-1.239c0.033-0.173,0.076-0.293,0.131-0.362
			c0.051-0.069,0.18-0.104,0.387-0.104c0.24-0.035,0.473-0.069,0.697-0.104c0.223-0.033,0.455-0.085,0.697-0.155
			c0.275-0.067,0.568-0.118,0.877-0.153c0.311-0.034,0.604-0.085,0.879-0.154c0.172-0.07,0.336-0.113,0.49-0.13
			c0.156-0.017,0.318-0.06,0.492-0.13c0.24-0.068,0.473-0.111,0.695-0.128c0.225-0.019,0.457-0.062,0.697-0.129
			c0.035,0.103,0.035,0.172,0,0.206c-0.24,0.618-0.455,1.247-0.645,1.886c-0.191,0.636-0.371,1.265-0.543,1.884
			c-0.172,0.654-0.352,1.293-0.541,1.913c-0.191,0.619-0.387,1.239-0.594,1.859c-0.242,0.826-0.459,1.652-0.646,2.479
			c-0.189,0.827-0.389,1.653-0.594,2.479c-0.07,0.274-0.104,0.48-0.104,0.618c0,0.174,0.016,0.327,0.051,0.467
			c0.035,0.136,0.139,0.24,0.311,0.309c0.137,0.069,0.326,0.258,0.568,0.569c0.068-0.104,0.086-0.216,0.051-0.337
			c-0.035-0.12-0.016-0.232,0.053-0.335c0.137,0.067,0.172,0.154,0.104,0.259c-0.072,0.102-0.035,0.172,0.102,0.205
			c0.035,0,0.053-0.05,0.053-0.155c0.033-0.102,0.053-0.206,0.053-0.309c0-0.104,0.051-0.19,0.152-0.258V46.63
			c-0.068-0.07-0.076-0.129-0.025-0.182c0.053-0.052,0.08-0.095,0.08-0.129c0.031-0.068,0.059-0.139,0.076-0.207
			s0.061-0.104,0.129-0.104c0.172,0.172,0.258,0.285,0.258,0.336c0,0.052-0.086,0.146-0.258,0.285
			c0.068,0.034,0.119,0.077,0.154,0.129c0.035,0.051,0.086,0.094,0.156,0.128c0.137,0.034,0.154,0.103,0.051,0.209
			c-0.068,0.068-0.096,0.136-0.078,0.206c0.018,0.067,0.043,0.136,0.078,0.205c0,0.034,0.01,0.078,0.025,0.13
			c0.018,0.051,0.061,0.06,0.131,0.026c0.137,0,0.17-0.07,0.104-0.206c0-0.105,0.016-0.191,0.051-0.26
			c0.104-0.102,0.086-0.189-0.051-0.258c-0.07-0.068-0.104-0.122-0.104-0.154c0-0.138,0.016-0.226,0.051-0.26
			c0.068-0.068,0.094-0.138,0.078-0.206c-0.02-0.068-0.025-0.139-0.025-0.207c0.066-0.173,0.102-0.329,0.102-0.465
			c0-0.137,0.035-0.293,0.104-0.465c0.104-0.172,0.139-0.293,0.104-0.361c-0.068,0.068-0.137,0.137-0.207,0.206
			c-0.068,0.068-0.102,0.155-0.102,0.26c0,0.137-0.053,0.206-0.156,0.206v0.104c0,0.069-0.035,0.119-0.104,0.155
			c0-0.036-0.018-0.053-0.051-0.053c0-0.068,0.016-0.121,0.051-0.155c0.033-0.033,0.068-0.051,0.104-0.051
			c0-0.069-0.018-0.12-0.051-0.154c-0.07,0.066-0.174,0.103-0.311,0.103c-0.07-0.276-0.018-0.447,0.154-0.516
			c-0.068-0.138-0.086-0.24-0.051-0.312c0.033-0.104,0.059-0.215,0.076-0.335c0.018-0.121,0.061-0.232,0.131-0.336
			c0.068-0.067,0.104-0.154,0.104-0.258c0.033-0.172,0.068-0.344,0.104-0.517c0.033-0.172,0.066-0.345,0.102-0.518
			c0.07-0.206,0.139-0.413,0.207-0.621c0.07-0.205,0.137-0.411,0.207-0.617c0.068-0.069,0.104-0.156,0.104-0.26
			s0.033-0.188,0.104-0.258c0.104,0.103,0.137,0.19,0.104,0.258c-0.07,0.069-0.123,0.139-0.156,0.206c0,0.036-0.01,0.07-0.025,0.104
			c-0.018,0.035-0.025,0.069-0.025,0.104c-0.035,0.068-0.027,0.121,0.025,0.155c0.051,0.035,0.059,0.085,0.025,0.154
			c-0.035,0.068-0.078,0.103-0.129,0.103c-0.053,0-0.078,0.035-0.078,0.105c-0.104,0.206-0.104,0.36,0,0.464
			c0.07,0.069,0.07,0.137,0,0.207c-0.068,0.241-0.127,0.464-0.182,0.671c-0.051,0.206-0.109,0.431-0.18,0.673l-0.309,0.619
			L319,44.926c0.068,0,0.129,0.024,0.18,0.076c0.053,0.052,0.078-0.008,0.078-0.181l0.053-0.052
			c0.172-0.067,0.273-0.155,0.309-0.259c0.035-0.103,0.086-0.223,0.154-0.361c0.104-0.137,0.121-0.31,0.053-0.517
			c-0.07,0-0.104,0.045-0.104,0.13c0,0.086-0.033,0.128-0.104,0.128c0-0.136,0.027-0.266,0.078-0.386
			c0.051-0.121,0.109-0.25,0.18-0.389c0.068-0.275,0.172-0.516,0.311-0.724c0.137-0.206,0.24-0.447,0.311-0.722
			c0-0.035,0.008-0.061,0.025-0.078c0.016-0.016,0.025-0.042,0.025-0.078c-0.068-0.102-0.078-0.188-0.025-0.258
			c0.051-0.068,0.094-0.137,0.129-0.207c0.035-0.206,0.104-0.395,0.207-0.568c0.068-0.136,0.119-0.266,0.154-0.386
			c0.035-0.122,0.121-0.216,0.26-0.285c-0.07-0.137-0.098-0.223-0.078-0.258c0.016-0.033,0.059-0.121,0.129-0.258
			c0.137-0.207,0.223-0.327,0.258-0.361c0.104-0.104,0.104-0.156,0-0.156c-0.07,0.034-0.102,0-0.102-0.104
			c0.066-0.136,0.127-0.274,0.18-0.413c0.051-0.137,0.111-0.292,0.18-0.464c0.104-0.172,0.197-0.354,0.285-0.543
			c0.086-0.189,0.162-0.39,0.232-0.594c0.033-0.068,0.059-0.138,0.078-0.206c0.016-0.068,0.043-0.138,0.076-0.207
			c0.104-0.139,0.189-0.345,0.258-0.62c0.035-0.172,0.07-0.336,0.104-0.49c0.035-0.156,0.137-0.318,0.309-0.492
			c0,0.207-0.016,0.345-0.049,0.414c-0.07,0.206-0.139,0.448-0.207,0.723c-0.068,0.139-0.068,0.327,0,0.569
			c0.068-0.069,0.111-0.13,0.129-0.181c0.016-0.052,0.059-0.078,0.127-0.078v0.206c-0.068,0.173-0.152,0.345-0.256,0.517
			c-0.104,0.173-0.174,0.344-0.207,0.518c-0.207,0.172-0.311,0.413-0.311,0.723c0,0.069-0.018,0.112-0.051,0.128
			c-0.035,0.02-0.053,0.044-0.053,0.078c-0.068,0.07-0.086,0.122-0.051,0.156c0.068,0.068,0.086,0.121,0.051,0.154
			c-0.033,0.034-0.051,0.069-0.051,0.103c-0.035,0.07-0.07,0.147-0.104,0.233c-0.035,0.086-0.035,0.163,0,0.232v0.155
			c-0.104,0.103-0.189,0.275-0.258,0.516c-0.068,0.104-0.104,0.206-0.104,0.311c0,0.103-0.035,0.207-0.104,0.31
			c0.068,0.206,0.059,0.413-0.025,0.619c-0.088,0.207-0.164,0.396-0.232,0.569c-0.07,0.139-0.086,0.258-0.053,0.36
			c0.137-0.206,0.242-0.344,0.311-0.412c0.033-0.034,0.051-0.06,0.051-0.078c0-0.017,0.018-0.043,0.053-0.076v-0.054
			c0.068-0.206,0.154-0.402,0.258-0.593c0.104-0.188,0.156-0.404,0.156-0.646c0.033-0.069,0.059-0.13,0.076-0.182
			c0.018-0.051,0.061-0.11,0.129-0.18c0.07-0.069,0.104-0.155,0.104-0.259c0.035-0.172,0.068-0.327,0.104-0.465
			s0.086-0.274,0.154-0.413c0.035-0.034,0.053-0.068,0.053-0.104c0.035-0.413,0.172-0.827,0.414-1.24
			c0.033-0.033,0.051-0.067,0.051-0.103c-0.105-0.104-0.121-0.258-0.051-0.465c0.066-0.207,0.119-0.344,0.152-0.414
			c0.035-0.068,0.07-0.128,0.105-0.18c0.033-0.053,0.016-0.111-0.051-0.182c-0.07-0.067-0.07-0.171,0-0.31
			c0.066-0.068,0.119-0.147,0.152-0.232c0.035-0.086,0.086-0.164,0.156-0.232c0.207-0.38,0.395-0.748,0.568-1.11
			c0.172-0.363,0.344-0.731,0.516-1.111c0.172-0.31,0.24-0.585,0.207-0.826l0.104-0.104c0.068,0,0.121-0.007,0.154-0.026
			c0.035-0.016,0.086-0.024,0.154-0.024c0.346-0.069,0.68-0.147,1.008-0.233c0.328-0.085,0.646-0.181,0.957-0.284
			c0.205-0.068,0.404-0.121,0.594-0.154c0.188-0.034,0.369-0.085,0.541-0.156c0.035-0.034,0.07-0.05,0.104-0.05
			c0.035,0,0.068-0.019,0.104-0.054c0.104-0.103,0.217-0.171,0.336-0.206c0.121-0.032,0.25-0.068,0.389-0.103
			c0.137-0.034,0.266-0.069,0.387-0.104c0.119-0.033,0.266-0.086,0.439-0.154h-0.518c-0.309,0.068-0.611,0.138-0.904,0.206
			s-0.594,0.086-0.902,0.052c0.102-0.069,0.266-0.137,0.49-0.208c0.223-0.068,0.404-0.102,0.541-0.102
			c0.104-0.034,0.215-0.061,0.338-0.079c0.119-0.017,0.25-0.076,0.387-0.181c-0.277,0.07-0.482,0.104-0.621,0.104
			c0.172-0.104,0.344-0.172,0.518-0.206c0.172-0.034,0.344-0.086,0.518-0.156c-0.174,0-0.346,0.009-0.518,0.026
			c-0.174,0.017-0.361,0.008-0.568-0.026c0.172-0.138,0.352-0.197,0.543-0.181c0.188,0.018,0.352-0.06,0.49-0.232
			c-0.311,0-0.619,0.044-0.93,0.129c-0.311,0.087-0.639,0.112-0.98,0.077c0.207-0.102,0.342-0.206,0.412-0.309
			c-0.139,0-0.311-0.035-0.518-0.104c0.207-0.034,0.404-0.085,0.596-0.153c0.188-0.069,0.387-0.12,0.594-0.156
			c0.172,0,0.291-0.018,0.361-0.051c-0.139-0.206-0.346-0.275-0.621-0.206c-0.068,0.067-0.119,0.067-0.154,0
			c-0.139-0.034-0.268-0.043-0.387-0.027c-0.121,0.018-0.25,0.027-0.389,0.027c-0.273,0.033-0.559,0.05-0.852,0.05
			s-0.578,0.018-0.852,0.053c-0.07,0-0.174-0.069-0.311-0.206c-0.07-0.069-0.086-0.112-0.051-0.131
			c0.031-0.016,0.051-0.042,0.051-0.076l0.311-0.93c0.033-0.137,0.068-0.258,0.104-0.362c0.033-0.104,0.084-0.223,0.154-0.36
			c0.033-0.068,0.033-0.156,0-0.26c0-0.033-0.01-0.025-0.025,0.025c-0.018,0.053-0.045,0.044-0.078-0.025
			c0.104-0.274,0.223-0.551,0.361-0.827c0.137-0.274,0.275-0.55,0.414-0.825c0.137-0.311,0.291-0.611,0.465-0.904
			c0.172-0.292,0.309-0.611,0.414-0.956v-0.102c0.102-0.208,0.188-0.414,0.256-0.62c0.07-0.207,0.139-0.414,0.207-0.621
			s0.129-0.404,0.182-0.595c0.051-0.188,0.094-0.388,0.129-0.594c0.068-0.171,0.129-0.336,0.182-0.491
			c0.051-0.154,0.111-0.317,0.18-0.49c0.172-0.378,0.318-0.748,0.439-1.11c0.119-0.362,0.25-0.731,0.389-1.11
			c0.102-0.344,0.135-0.672,0.102-0.981c-0.068-0.241-0.146-0.465-0.232-0.671s-0.129-0.431-0.129-0.672l-0.104-0.104
			c-0.139-0.137-0.172-0.257-0.104-0.361c0-0.067-0.018-0.119-0.051-0.154c-0.104-0.034-0.154-0.119-0.154-0.258V13.88
			c0-0.068-0.051-0.085-0.156-0.051c0,0.067-0.035,0.103-0.102,0.103c0-0.035,0.006-0.061,0.025-0.078
			c0.016-0.017,0.025-0.042,0.025-0.078c0-0.032-0.018-0.05-0.051-0.05c0.033,0,0,0.05-0.105,0.154
			c-0.035,0.035-0.07,0.052-0.104,0.052s-0.051-0.052-0.051-0.156c0-0.239-0.139-0.36-0.414-0.36
			C328.451,13.449,328.332,13.501,328.195,13.569"/>
	</defs>
	<clipPath id="SVGID_11_">
		<use xlink:href="#SVGID_10_"  overflow="visible"/>
	</clipPath>
	
		<linearGradient id="SVGID_12_" gradientUnits="userSpaceOnUse" x1="-214.0781" y1="330.5449" x2="-213.0781" y2="330.5449" gradientTransform="matrix(24.4847 0 0 -24.4847 5547.4526 8123.8574)">
		<stop  offset="0" style="stop-color:#F8B133"/>
		<stop  offset="1" style="stop-color:#E84E1B"/>
	</linearGradient>
	<rect x="305.828" y="13.415" clip-path="url(#SVGID_11_)" fill="url(#SVGID_12_)" width="24.484" height="34.3"/>
</g>
</svg>
