<?xml version="1.0" encoding="utf-8"?>
<!-- Generator: Adobe Illustrator 16.0.0, SVG Export Plug-In . SVG Version: 6.00 Build 0)  -->
<!DOCTYPE svg PUBLIC "-//W3C//DTD SVG 1.1//EN" "http://www.w3.org/Graphics/SVG/1.1/DTD/svg11.dtd">
<svg version="1.1" id="Livello_1" xmlns="http://www.w3.org/2000/svg" xmlns:xlink="http://www.w3.org/1999/xlink" x="0px" y="0px"
	 width="121.89px" height="85.04px" viewBox="0 0 121.89 85.04" enable-background="new 0 0 121.89 85.04" xml:space="preserve">
<g>
	<defs>
		<path id="SVGID_1_" d="M46.226,17.229c-1.662,2.653-2.57,5.71-2.624,8.842c-0.001,0.031,0.041,1.402,0.041,1.402
			c0.121,1.948,0.55,3.814,1.275,5.55c0.258,0.615,0.572,1.243,0.96,1.918c1.368,3.053,2.061,6.3,2.061,9.652
			c0,3.479-0.742,6.834-2.208,9.978c-0.366,0.785-0.771,1.545-1.204,2.259c-1.72-2.914-2.803-6.178-3.148-9.509v-9.143
			c-0.001-5.64-4.59-10.23-10.23-10.23c-5.642,0-10.231,4.59-10.231,10.231c0,4.643,3.139,8.708,7.635,9.885
			c0.873,0.229,1.746,0.345,2.596,0.345c0.526,0,1.074-0.049,1.678-0.148l0.622-0.103v-4.684v-0.993l-0.953,0.279
			c-0.444,0.13-0.897,0.197-1.347,0.197c-0.722,0-1.423-0.163-2.083-0.484c-1.664-0.808-2.697-2.454-2.697-4.295
			c0-2.634,2.145-4.778,4.78-4.778c2.633,0,4.777,2.143,4.778,4.777l-0.041,8.359l0.025,0.89c0.176,2.519,0.728,4.982,1.638,7.322
			c0.837,2.148,1.965,4.168,3.357,6.011c-3.518,2.892-7.926,4.477-12.489,4.477c-4,0-7.85-1.197-11.143-3.462l-0.697-0.644
			c-1.841-1.704-1.955-4.588-0.253-6.429c0.859-0.93,2.077-1.463,3.344-1.463c1.147,0,2.243,0.43,3.085,1.207
			c1.289,1.19,1.772,2.977,1.262,4.661l-0.134,0.445l0.341,0.317l2.96,2.733l0.708,0.653l0.452-0.85
			c2.101-3.945,1.279-8.814-2-11.843c-1.822-1.686-4.192-2.612-6.673-2.612c-2.737,0-5.372,1.152-7.228,3.161
			C8.76,55.096,9.006,61.332,12.99,65.012l0.032,0.03l0.001,0.002l1.261,1.038c4.161,2.884,8.824,4.405,13.53,4.405
			c0.207,0,0.417-0.004,0.625-0.009c10.595-0.304,15.863-5.327,20.508-9.76c3.653-3.483,6.806-6.491,11.933-6.878
			c0,0,0.179-0.034,0.216-0.044c5.288,0.436,9.139,3.9,13.211,7.565c4.644,4.178,9.444,8.499,16.87,8.987
			c0.706,0.066,1.49,0.129,2.29,0.129c5.091,0,9.963-1.519,14.134-4.396l1.296-1.07c3.981-3.682,4.229-9.917,0.548-13.899
			c-1.855-2.009-4.49-3.161-7.228-3.161c-2.481,0-4.851,0.927-6.675,2.612c-3.278,3.028-4.101,7.898-2,11.843l0.453,0.85l4.01-3.704
			l-0.135-0.445c-0.51-1.685-0.026-3.471,1.261-4.66c0.843-0.778,1.94-1.208,3.086-1.208c1.267,0,2.485,0.533,3.344,1.463
			c1.697,1.838,1.589,4.711-0.24,6.415l-0.015,0.014l-0.676,0.625l-0.021,0.02c-3.292,2.265-7.143,3.461-11.142,3.461
			c-4.616,0-9.063-1.619-12.6-4.572c1.358-1.819,2.462-3.805,3.284-5.915c0.909-2.339,1.462-4.804,1.639-7.322l-0.017-0.795v-8.454
			c0.001-2.634,2.144-4.777,4.777-4.777c2.635,0,4.779,2.144,4.779,4.778c0,1.841-1.032,3.487-2.696,4.295
			c-0.66,0.321-1.36,0.484-2.083,0.484c-0.45,0-0.902-0.067-1.347-0.197l-0.954-0.279v5.046v0.63l0.622,0.103
			c0.604,0.1,1.154,0.148,1.679,0.148c0.851,0,1.726-0.116,2.598-0.345c4.494-1.178,7.635-5.242,7.635-9.885
			c0-5.641-4.59-10.231-10.232-10.231c-5.64,0-10.229,4.59-10.23,10.23v9.143c-0.349,3.376-1.406,6.57-3.147,9.509
			c-0.436-0.719-0.84-1.479-1.205-2.259c-1.466-3.142-2.209-6.498-2.209-9.978c0-3.352,0.693-6.599,2.062-9.652
			c0.391-0.68,0.705-1.308,0.96-1.918c0.767-1.832,1.2-3.809,1.292-5.874c0.005-0.084,0.039-0.599,0.039-0.776
			c0-3.226-0.913-6.389-2.64-9.144c-3.185-5.083-8.651-8.118-14.622-8.118C54.878,9.111,49.412,12.146,46.226,17.229"/>
	</defs>
	<clipPath id="SVGID_2_">
		<use xlink:href="#SVGID_1_"  overflow="visible"/>
	</clipPath>
	
		<linearGradient id="SVGID_3_" gradientUnits="userSpaceOnUse" x1="0" y1="85.0396" x2="1" y2="85.0396" gradientTransform="matrix(102.2177 0 0 -102.2177 9.8125 8732.334)">
		<stop  offset="0" style="stop-color:#F9B233"/>
		<stop  offset="1" style="stop-color:#E94E1B"/>
	</linearGradient>
	<rect x="8.76" y="9.111" clip-path="url(#SVGID_2_)" fill="url(#SVGID_3_)" width="104.365" height="61.376"/>
</g>
<g>
	<defs>
		<rect id="SVGID_4_" y="0" width="121.89" height="85.039"/>
	</defs>
	<clipPath id="SVGID_5_">
		<use xlink:href="#SVGID_4_"  overflow="visible"/>
	</clipPath>
	<path clip-path="url(#SVGID_5_)" d="M56.558,38.795c0,0.893-0.724,1.617-1.617,1.617s-1.617-0.724-1.617-1.617
		c0-0.894,0.724-1.618,1.617-1.618S56.558,37.901,56.558,38.795"/>
	<path clip-path="url(#SVGID_5_)" d="M68.561,38.795c0,0.893-0.725,1.617-1.616,1.617c-0.895,0-1.617-0.724-1.617-1.617
		c0-0.894,0.723-1.618,1.617-1.618C67.836,37.177,68.561,37.901,68.561,38.795"/>
	<path clip-path="url(#SVGID_5_)" fill="#1D71B8" d="M61.748,36.577c-1.256,0.095-2.51,0.001-3.777-0.353
		c-2.657-0.744-5.379-1.054-8.125-0.955c-2.03,0.074-4.055,0.305-6.074,0.533c-0.98,0.11-1.351,0.812-1.081,1.76
		c0.127,0.446,0.348,0.806,0.797,0.982c0.791,0.308,1.046,0.895,1.061,1.725c0.028,1.693,0.563,3.248,1.511,4.653
		c0.766,1.138,1.823,1.886,3.133,2.273c3.643,1.073,7.76-0.803,9.337-4.255c0.052-0.113,1.043-2.677,1.204-3.079
		c0.235-0.581,0.537-1.132,1.244-1.133c0.258-0.001,0.468,0.071,0.64,0.19C61.648,38.137,61.689,37.356,61.748,36.577"/>
</g>
<g>
	<defs>
		<path id="SVGID_6_" d="M47.265,40.222c0.15,2.69,1.345,4.803,3.994,4.804c2.945,0.002,4.435-1.388,5.039-4.826
			c0.426-2.434-2.284-2.584-3.864-2.668c-0.593-0.032-1.138-0.054-1.634-0.054C48.375,37.478,47.141,37.986,47.265,40.222"/>
	</defs>
	<clipPath id="SVGID_7_">
		<use xlink:href="#SVGID_6_"  overflow="visible"/>
	</clipPath>
	
		<linearGradient id="SVGID_8_" gradientUnits="userSpaceOnUse" x1="0" y1="85.0396" x2="1" y2="85.0396" gradientTransform="matrix(9.0857 0 0 -9.0857 47.2578 813.8931)">
		<stop  offset="0" style="stop-color:#F9B233"/>
		<stop  offset="1" style="stop-color:#E94E1B"/>
	</linearGradient>
	<rect x="47.141" y="37.478" clip-path="url(#SVGID_7_)" fill="url(#SVGID_8_)" width="9.583" height="7.55"/>
</g>
<g>
	<defs>
		<rect id="SVGID_9_" y="0" width="121.89" height="85.039"/>
	</defs>
	<clipPath id="SVGID_10_">
		<use xlink:href="#SVGID_9_"  overflow="visible"/>
	</clipPath>
	<path clip-path="url(#SVGID_10_)" fill="#1D71B8" d="M60.136,36.577c1.257,0.095,2.511,0.001,3.777-0.353
		c2.658-0.744,5.379-1.054,8.126-0.955c2.029,0.074,4.054,0.305,6.074,0.533c0.979,0.11,1.35,0.812,1.08,1.76
		c-0.127,0.446-0.348,0.806-0.797,0.982c-0.791,0.308-1.047,0.895-1.062,1.725c-0.028,1.693-0.563,3.248-1.511,4.653
		c-0.767,1.138-1.823,1.886-3.133,2.273c-3.643,1.073-7.761-0.803-9.336-4.255c-0.053-0.113-1.044-2.677-1.205-3.079
		c-0.235-0.581-0.536-1.132-1.244-1.133c-0.257-0.001-0.468,0.071-0.641,0.19C60.236,38.137,60.195,37.356,60.136,36.577"/>
</g>
<g>
	<defs>
		<path id="SVGID_11_" d="M69.45,37.532c-1.577,0.084-4.289,0.234-3.862,2.668c0.604,3.438,2.092,4.828,5.039,4.826
			c2.647-0.001,3.844-2.114,3.993-4.804c0.124-2.235-1.11-2.744-3.536-2.744C70.589,37.478,70.044,37.5,69.45,37.532"/>
	</defs>
	<clipPath id="SVGID_12_">
		<use xlink:href="#SVGID_11_"  overflow="visible"/>
	</clipPath>
	
		<linearGradient id="SVGID_13_" gradientUnits="userSpaceOnUse" x1="0" y1="85.0396" x2="1" y2="85.0396" gradientTransform="matrix(9.0857 0 0 -9.0857 65.5391 813.8931)">
		<stop  offset="0" style="stop-color:#F9B233"/>
		<stop  offset="1" style="stop-color:#E94E1B"/>
	</linearGradient>
	<rect x="65.161" y="37.478" clip-path="url(#SVGID_12_)" fill="url(#SVGID_13_)" width="9.583" height="7.55"/>
</g>
<g>
	<defs>
		<rect id="SVGID_14_" y="0" width="121.89" height="85.039"/>
	</defs>
	<clipPath id="SVGID_15_">
		<use xlink:href="#SVGID_14_"  overflow="visible"/>
	</clipPath>
	<path clip-path="url(#SVGID_15_)" fill="#1D71B8" d="M44.136,75.124l-0.409,1.615h0.944l-0.161,0.637h-0.935l-0.374,1.472h-0.681
		l0.374-1.472h-1.18l-0.374,1.472h-0.672l0.374-1.472h-0.918l0.161-0.637h0.91l0.407-1.615h-0.925l0.161-0.638h0.927l0.374-1.478
		h0.671l-0.375,1.478h1.182l0.374-1.478h0.68l-0.374,1.478h0.935l-0.153,0.638H44.136z M43.457,75.124h-1.182l-0.408,1.615h1.182
		L43.457,75.124z"/>
	<path clip-path="url(#SVGID_15_)" fill="#1D71B8" d="M52.908,76.05v2.796h-0.824v-2.669c0-0.646-0.383-1.096-0.935-1.096
		c-0.63,0-1.071,0.416-1.071,1.021v2.744h-0.824v-2.669c0-0.646-0.383-1.096-0.936-1.096c-0.629,0-1.07,0.416-1.07,1.021v2.744
		h-0.842v-4.395h0.842v0.613c0.221-0.435,0.68-0.714,1.24-0.714c0.638,0,1.156,0.34,1.411,0.884
		c0.204-0.544,0.765-0.884,1.428-0.884C52.245,74.351,52.908,75.055,52.908,76.05"/>
	<path clip-path="url(#SVGID_15_)" fill="#1D71B8" d="M58.254,76.05v2.796H57.43v-2.65c0-0.656-0.417-1.114-1.012-1.114
		c-0.663,0-1.216,0.467-1.216,1.036v2.729h-0.833v-5.94h0.833v2.202c0.264-0.443,0.799-0.757,1.403-0.757
		C57.573,74.351,58.254,75.055,58.254,76.05"/>
	<path clip-path="url(#SVGID_15_)" fill="#1D71B8" d="M59.504,78.141l2.142-1.769c0.782-0.654,1.079-1.155,1.079-1.682
		c0-0.639-0.527-1.013-1.105-1.013c-0.637,0-1.104,0.342-1.512,0.867l-0.579-0.509c0.51-0.706,1.199-1.13,2.125-1.13
		c1.088,0,1.954,0.705,1.954,1.767c0,0.781-0.374,1.403-1.375,2.218l-1.37,1.156h2.797v0.799h-4.156V78.141z"/>
	<path clip-path="url(#SVGID_15_)" fill="#1D71B8" d="M64.885,75.922c0-1.768,1.027-3.017,2.499-3.017
		c1.453,0,2.49,1.249,2.49,3.017c0,1.776-1.037,3.025-2.49,3.025C65.912,78.948,64.885,77.699,64.885,75.922 M68.989,75.922
		c0-1.309-0.663-2.227-1.605-2.227c-0.953,0-1.623,0.918-1.623,2.227c0,1.31,0.67,2.235,1.623,2.235
		C68.326,78.158,68.989,77.232,68.989,75.922"/>
	<path clip-path="url(#SVGID_15_)" fill="#1D71B8" d="M70.986,78.141l2.143-1.769c0.782-0.654,1.08-1.155,1.08-1.682
		c0-0.639-0.528-1.013-1.106-1.013c-0.637,0-1.104,0.342-1.512,0.867l-0.579-0.509c0.511-0.706,1.2-1.13,2.125-1.13
		c1.088,0,1.955,0.705,1.955,1.767c0,0.781-0.374,1.403-1.376,2.218l-1.369,1.156h2.796v0.799h-4.156V78.141z"/>
	<path clip-path="url(#SVGID_15_)" fill="#1D71B8" d="M76.368,75.922c0-1.768,1.028-3.017,2.498-3.017
		c1.454,0,2.49,1.249,2.49,3.017c0,1.776-1.036,3.025-2.49,3.025C77.396,78.948,76.368,77.699,76.368,75.922 M80.472,75.922
		c0-1.309-0.662-2.227-1.605-2.227c-0.952,0-1.623,0.918-1.623,2.227c0,1.31,0.671,2.235,1.623,2.235
		C79.81,78.158,80.472,77.232,80.472,75.922"/>
</g>
</svg>
